<svg width="218" height="71" viewBox="0 0 218 71" fill="none" xmlns="http://www.w3.org/2000/svg">
<g clip-path="url(#clip0_15_2)">
<g filter="url(#filter0_d_15_2)">
<rect x="148" y="18" width="47" height="32" rx="4" fill="#111F2C"/>
</g>
<path d="M156.224 42.32C154.795 42.32 153.515 41.968 152.384 41.264C151.275 40.56 150.389 39.6 149.728 38.384C149.088 37.168 148.768 35.7813 148.768 34.224C148.768 32.6667 149.088 31.28 149.728 30.064C150.389 28.848 151.275 27.888 152.384 27.184C153.515 26.48 154.795 26.128 156.224 26.128C157.269 26.128 158.208 26.3307 159.04 26.736C159.893 27.1413 160.587 27.7067 161.12 28.432C161.653 29.136 161.952 29.9467 162.016 30.864V37.584C161.952 38.5013 161.653 39.3227 161.12 40.048C160.608 40.752 159.925 41.3067 159.072 41.712C158.219 42.1173 157.269 42.32 156.224 42.32ZM157.216 37.904C158.261 37.904 159.104 37.5627 159.744 36.88C160.384 36.176 160.704 35.2907 160.704 34.224C160.704 33.4987 160.555 32.8587 160.256 32.304C159.979 31.7493 159.573 31.3227 159.04 31.024C158.528 30.704 157.931 30.544 157.248 30.544C156.565 30.544 155.957 30.704 155.424 31.024C154.912 31.3227 154.496 31.7493 154.176 32.304C153.877 32.8587 153.728 33.4987 153.728 34.224C153.728 34.928 153.877 35.5573 154.176 36.112C154.475 36.6667 154.891 37.104 155.424 37.424C155.957 37.744 156.555 37.904 157.216 37.904ZM160.512 42V37.808L161.248 34.032L160.512 30.256V26.448H165.312V42H160.512ZM167.863 48.976C166.733 48.976 165.773 48.784 164.983 48.4C164.194 48.0373 163.501 47.5147 162.903 46.832L165.943 43.792C166.178 44.0693 166.423 44.2613 166.679 44.368C166.914 44.496 167.191 44.56 167.511 44.56C167.981 44.56 168.365 44.4213 168.663 44.144C168.983 43.8667 169.143 43.44 169.143 42.864V26.448H174.039V42.8C174.039 44.0587 173.773 45.1467 173.239 46.064C172.706 46.9813 171.97 47.696 171.031 48.208C170.114 48.72 169.058 48.976 167.863 48.976ZM171.639 24.304C170.871 24.304 170.231 24.048 169.719 23.536C169.229 23.0027 168.983 22.3627 168.983 21.616C168.983 20.848 169.229 20.208 169.719 19.696C170.231 19.184 170.871 18.928 171.639 18.928C172.407 18.928 173.037 19.184 173.527 19.696C174.018 20.208 174.263 20.848 174.263 21.616C174.263 22.3627 174.018 23.0027 173.527 23.536C173.037 24.048 172.407 24.304 171.639 24.304ZM184.005 42.32C182.576 42.32 181.296 41.968 180.165 41.264C179.056 40.56 178.171 39.6 177.509 38.384C176.869 37.168 176.549 35.7813 176.549 34.224C176.549 32.6667 176.869 31.28 177.509 30.064C178.171 28.848 179.056 27.888 180.165 27.184C181.296 26.48 182.576 26.128 184.005 26.128C185.051 26.128 185.989 26.3307 186.821 26.736C187.675 27.1413 188.368 27.7067 188.901 28.432C189.435 29.136 189.733 29.9467 189.797 30.864V37.584C189.733 38.5013 189.435 39.3227 188.901 40.048C188.389 40.752 187.707 41.3067 186.853 41.712C186 42.1173 185.051 42.32 184.005 42.32ZM184.997 37.904C186.043 37.904 186.885 37.5627 187.525 36.88C188.165 36.176 188.485 35.2907 188.485 34.224C188.485 33.4987 188.336 32.8587 188.037 32.304C187.76 31.7493 187.355 31.3227 186.821 31.024C186.309 30.704 185.712 30.544 185.029 30.544C184.347 30.544 183.739 30.704 183.205 31.024C182.693 31.3227 182.277 31.7493 181.957 32.304C181.659 32.8587 181.509 33.4987 181.509 34.224C181.509 34.928 181.659 35.5573 181.957 36.112C182.256 36.6667 182.672 37.104 183.205 37.424C183.739 37.744 184.336 37.904 184.997 37.904ZM188.293 42V37.808L189.029 34.032L188.293 30.256V26.448H193.093V42H188.293Z" fill="white"/>
<path d="M114.728 25.616C115.091 25.7013 115.389 25.8933 115.624 26.192C115.88 26.4693 116.008 26.8 116.008 27.184C116.008 27.5893 115.88 27.9307 115.624 28.208C115.368 28.4853 115.027 28.624 114.6 28.624C114.451 28.624 114.28 28.592 114.088 28.528C114.003 28.5067 113.8 28.496 113.48 28.496C113.096 28.5387 112.808 28.624 112.616 28.752C113.171 29.7547 113.448 30.8533 113.448 32.048C113.448 33.328 113.128 34.48 112.488 35.504C111.869 36.528 111.005 37.3387 109.896 37.936C108.808 38.5333 107.581 38.8427 106.216 38.864C105.853 38.864 105.533 38.9707 105.256 39.184C104.979 39.376 104.84 39.6 104.84 39.856C104.84 40.112 105 40.336 105.32 40.528C105.661 40.72 106.141 40.8587 106.76 40.944C108.531 41.1573 109.939 41.456 110.984 41.84C112.051 42.224 112.819 42.7147 113.288 43.312C113.779 43.9307 114.024 44.7093 114.024 45.648C114.024 46.736 113.683 47.696 113 48.528C112.317 49.3813 111.379 50.0427 110.184 50.512C109.011 50.9813 107.709 51.216 106.28 51.216C104.531 51.216 102.952 50.896 101.544 50.256C100.157 49.6373 99.0693 48.6987 98.28 47.44C98.1307 47.184 98.056 46.896 98.056 46.576C98.056 46.128 98.2053 45.7653 98.504 45.488C98.824 45.232 99.208 45.104 99.656 45.104C100.168 45.104 100.563 45.3067 100.84 45.712C101.309 46.3947 102.077 46.9707 103.144 47.44C104.211 47.9093 105.299 48.144 106.408 48.144C107.731 48.144 108.84 47.9307 109.736 47.504C110.632 47.0987 111.08 46.5227 111.08 45.776C111.08 45.1573 110.76 44.7093 110.12 44.432C109.501 44.1547 108.392 43.8987 106.792 43.664C104.872 43.344 103.507 42.928 102.696 42.416C101.907 41.904 101.512 41.1787 101.512 40.24C101.512 39.408 102.003 38.7573 102.984 38.288C101.661 37.7547 100.605 36.9333 99.816 35.824C99.048 34.7147 98.664 33.456 98.664 32.048C98.664 30.7467 98.984 29.5733 99.624 28.528C100.285 27.4827 101.181 26.6613 102.312 26.064C103.443 25.4453 104.701 25.136 106.088 25.136C107.859 25.136 109.405 25.6267 110.728 26.608C111.645 25.8613 112.68 25.488 113.832 25.488C114.045 25.488 114.344 25.5307 114.728 25.616ZM106.088 35.76C107.283 35.76 108.275 35.408 109.064 34.704C109.853 33.9787 110.248 33.0933 110.248 32.048C110.248 30.9813 109.853 30.0853 109.064 29.36C108.275 28.6133 107.283 28.24 106.088 28.24C104.872 28.24 103.859 28.6133 103.048 29.36C102.259 30.0853 101.864 30.9813 101.864 32.048C101.864 33.0933 102.259 33.9787 103.048 34.704C103.859 35.408 104.872 35.76 106.088 35.76Z" fill="url(#paint0_linear_15_2)"/>
<g filter="url(#filter1_d_15_2)">
<path d="M28.152 42.32C26.5733 42.32 25.1547 41.968 23.896 41.264C22.6373 40.56 21.6453 39.6 20.92 38.384C20.1947 37.168 19.832 35.8027 19.832 34.288C19.832 32.752 20.1947 31.376 20.92 30.16C21.6453 28.944 22.6373 27.984 23.896 27.28C25.176 26.5547 26.5947 26.192 28.152 26.192C29.368 26.192 30.488 26.416 31.512 26.864C32.536 27.312 33.4213 27.952 34.168 28.784L31.48 31.504C31.0747 31.056 30.584 30.7147 30.008 30.48C29.4533 30.2453 28.8347 30.128 28.152 30.128C27.384 30.128 26.6907 30.3093 26.072 30.672C25.4747 31.0133 24.9947 31.4933 24.632 32.112C24.2907 32.7093 24.12 33.424 24.12 34.256C24.12 35.0667 24.2907 35.792 24.632 36.432C24.9947 37.0507 25.4747 37.5413 26.072 37.904C26.6907 38.2453 27.384 38.416 28.152 38.416C28.856 38.416 29.4853 38.2987 30.04 38.064C30.616 37.808 31.1067 37.4453 31.512 36.976L34.232 39.696C33.4427 40.5493 32.536 41.2 31.512 41.648C30.488 42.096 29.368 42.32 28.152 42.32ZM43.5263 42.32C41.9689 42.32 40.5609 41.968 39.3023 41.264C38.0649 40.5387 37.0729 39.568 36.3263 38.352C35.6009 37.1147 35.2383 35.7387 35.2383 34.224C35.2383 32.7093 35.6009 31.3547 36.3263 30.16C37.0516 28.944 38.0436 27.984 39.3023 27.28C40.5609 26.5547 41.9583 26.192 43.4943 26.192C45.0729 26.192 46.4809 26.5547 47.7183 27.28C48.9769 27.984 49.9689 28.944 50.6943 30.16C51.4196 31.3547 51.7823 32.7093 51.7823 34.224C51.7823 35.7387 51.4196 37.1147 50.6943 38.352C49.9689 39.568 48.9769 40.5387 47.7183 41.264C46.4809 41.968 45.0836 42.32 43.5263 42.32ZM43.4943 38.416C44.2836 38.416 44.9769 38.2453 45.5743 37.904C46.1929 37.5413 46.6623 37.0507 46.9823 36.432C47.3236 35.792 47.4943 35.0667 47.4943 34.256C47.4943 33.4453 47.3236 32.7307 46.9823 32.112C46.6409 31.4933 46.1716 31.0133 45.5743 30.672C44.9769 30.3093 44.2836 30.128 43.4943 30.128C42.7263 30.128 42.0436 30.3093 41.4463 30.672C40.8489 31.0133 40.3796 31.4933 40.0383 32.112C39.6969 32.7307 39.5263 33.4453 39.5263 34.256C39.5263 35.0667 39.6969 35.792 40.0383 36.432C40.3796 37.0507 40.8489 37.5413 41.4463 37.904C42.0436 38.2453 42.7263 38.416 43.4943 38.416ZM61.009 42.32C59.5797 42.32 58.2997 41.968 57.169 41.264C56.0383 40.56 55.1423 39.6 54.481 38.384C53.841 37.168 53.521 35.8027 53.521 34.288C53.521 32.752 53.841 31.376 54.481 30.16C55.1423 28.944 56.0277 27.984 57.137 27.28C58.2677 26.576 59.5583 26.224 61.009 26.224C62.1183 26.224 63.1103 26.448 63.985 26.896C64.881 27.344 65.5957 27.9733 66.129 28.784C66.6837 29.5733 66.9823 30.4693 67.025 31.472V36.976C66.9823 37.9787 66.6943 38.8853 66.161 39.696C65.6277 40.5067 64.913 41.1467 64.017 41.616C63.121 42.0853 62.1183 42.32 61.009 42.32ZM61.713 38.448C62.5023 38.448 63.185 38.2773 63.761 37.936C64.3583 37.5733 64.817 37.0827 65.137 36.464C65.4783 35.824 65.649 35.088 65.649 34.256C65.649 33.4453 65.4783 32.7307 65.137 32.112C64.817 31.472 64.3583 30.9813 63.761 30.64C63.185 30.2773 62.513 30.096 61.745 30.096C60.9557 30.096 60.2623 30.2773 59.665 30.64C59.089 31.0027 58.6303 31.4933 58.289 32.112C57.969 32.7307 57.809 33.4453 57.809 34.256C57.809 35.088 57.969 35.824 58.289 36.464C58.6303 37.0827 59.0997 37.5733 59.697 37.936C60.2943 38.2773 60.9663 38.448 61.713 38.448ZM69.585 42H65.425V37.84L66.097 34.064L65.393 30.352V18.864H69.585V42ZM73.2935 42V26.544H77.5175V42H73.2935ZM75.4055 24.048C74.7228 24.048 74.1575 23.824 73.7095 23.376C73.2615 22.9067 73.0375 22.3307 73.0375 21.648C73.0375 20.9867 73.2615 20.4213 73.7095 19.952C74.1575 19.4827 74.7228 19.248 75.4055 19.248C76.1095 19.248 76.6748 19.4827 77.1015 19.952C77.5495 20.4213 77.7735 20.9867 77.7735 21.648C77.7735 22.3307 77.5495 22.9067 77.1015 23.376C76.6748 23.824 76.1095 24.048 75.4055 24.048ZM91.631 42V33.136C91.631 32.2187 91.343 31.472 90.767 30.896C90.191 30.32 89.4443 30.032 88.527 30.032C87.9297 30.032 87.3963 30.16 86.927 30.416C86.4577 30.672 86.0843 31.0347 85.807 31.504C85.551 31.9733 85.423 32.5173 85.423 33.136L83.791 32.304C83.791 31.088 84.047 30.032 84.559 29.136C85.0923 28.2187 85.8177 27.504 86.735 26.992C87.6737 26.48 88.7297 26.224 89.903 26.224C91.0337 26.224 92.047 26.512 92.943 27.088C93.839 27.6427 94.543 28.3787 95.055 29.296C95.567 30.192 95.823 31.1627 95.823 32.208V42H91.631ZM81.231 42V26.544H85.423V42H81.231ZM117.95 42V26.544H122.174V42H117.95ZM120.062 24.048C119.379 24.048 118.814 23.824 118.366 23.376C117.918 22.9067 117.694 22.3307 117.694 21.648C117.694 20.9867 117.918 20.4213 118.366 19.952C118.814 19.4827 119.379 19.248 120.062 19.248C120.766 19.248 121.331 19.4827 121.758 19.952C122.206 20.4213 122.43 20.9867 122.43 21.648C122.43 22.3307 122.206 22.9067 121.758 23.376C121.331 23.824 120.766 24.048 120.062 24.048ZM136.287 42V33.136C136.287 32.2187 135.999 31.472 135.423 30.896C134.847 30.32 134.101 30.032 133.183 30.032C132.586 30.032 132.053 30.16 131.583 30.416C131.114 30.672 130.741 31.0347 130.463 31.504C130.207 31.9733 130.079 32.5173 130.079 33.136L128.447 32.304C128.447 31.088 128.703 30.032 129.215 29.136C129.749 28.2187 130.474 27.504 131.391 26.992C132.33 26.48 133.386 26.224 134.559 26.224C135.69 26.224 136.703 26.512 137.599 27.088C138.495 27.6427 139.199 28.3787 139.711 29.296C140.223 30.192 140.479 31.1627 140.479 32.208V42H136.287ZM125.887 42V26.544H130.079V42H125.887Z" fill="url(#paint1_linear_15_2)"/>
</g>
</g>
<defs>
<filter id="filter0_d_15_2" x="144" y="18" width="55" height="40" filterUnits="userSpaceOnUse" color-interpolation-filters="sRGB">
<feFlood flood-opacity="0" result="BackgroundImageFix"/>
<feColorMatrix in="SourceAlpha" type="matrix" values="0 0 0 0 0 0 0 0 0 0 0 0 0 0 0 0 0 0 127 0" result="hardAlpha"/>
<feOffset dy="4"/>
<feGaussianBlur stdDeviation="2"/>
<feComposite in2="hardAlpha" operator="out"/>
<feColorMatrix type="matrix" values="0 0 0 0 0 0 0 0 0 0 0 0 0 0 0 0 0 0 0.25 0"/>
<feBlend mode="normal" in2="BackgroundImageFix" result="effect1_dropShadow_15_2"/>
<feBlend mode="normal" in="SourceGraphic" in2="effect1_dropShadow_15_2" result="shape"/>
</filter>
<filter id="filter1_d_15_2" x="15.832" y="18.864" width="128.647" height="31.456" filterUnits="userSpaceOnUse" color-interpolation-filters="sRGB">
<feFlood flood-opacity="0" result="BackgroundImageFix"/>
<feColorMatrix in="SourceAlpha" type="matrix" values="0 0 0 0 0 0 0 0 0 0 0 0 0 0 0 0 0 0 127 0" result="hardAlpha"/>
<feOffset dy="4"/>
<feGaussianBlur stdDeviation="2"/>
<feComposite in2="hardAlpha" operator="out"/>
<feColorMatrix type="matrix" values="0 0 0 0 0 0 0 0 0 0 0 0 0 0 0 0 0 0 0.25 0"/>
<feBlend mode="normal" in2="BackgroundImageFix" result="effect1_dropShadow_15_2"/>
<feBlend mode="normal" in="SourceGraphic" in2="effect1_dropShadow_15_2" result="shape"/>
</filter>
<linearGradient id="paint0_linear_15_2" x1="107" y1="5" x2="107" y2="56.5" gradientUnits="userSpaceOnUse">
<stop stop-color="#FF7A00"/>
<stop offset="1" stop-color="#1D3954"/>
</linearGradient>
<linearGradient id="paint1_linear_15_2" x1="97.5" y1="10" x2="97.5" y2="54" gradientUnits="userSpaceOnUse">
<stop stop-color="#FF7A00"/>
<stop offset="0.0001" stop-color="#FF7A00"/>
<stop offset="1" stop-color="#1D3954"/>
</linearGradient>
<clipPath id="clip0_15_2">
<rect width="218" height="71" fill="white"/>
</clipPath>
</defs>
</svg>
