<svg xmlns="http://www.w3.org/2000/svg" xmlns:xlink="http://www.w3.org/1999/xlink" width="520" zoomAndPan="magnify" viewBox="0 0 390 389.999986" height="520" preserveAspectRatio="xMidYMid meet" version="1.0"><rect x="-39" width="468" fill="#ffffff" y="-38.999999" height="467.999983" fill-opacity="1"/><rect x="-39" width="468" fill="#ffffff" y="-38.999999" height="467.999983" fill-opacity="1"/><path fill="#eeba2b" d="M 120.542969 325.792969 L 271.332031 325.792969 C 281.925781 325.792969 292.347656 323.074219 301.605469 317.898438 C 333.09375 300.277344 343.0625 259.566406 323.285156 229.332031 L 318.109375 221.417969 C 309.484375 208.230469 307.667969 191.699219 313.222656 176.945312 L 320.175781 158.484375 C 330.238281 131.765625 308.097656 103.988281 279.886719 107.9375 C 271.378906 109.128906 262.722656 107.359375 255.363281 102.917969 L 214.773438 78.445312 C 195.875 67.050781 173.140625 63.933594 151.886719 69.820312 L 133.917969 74.800781 C 99.324219 84.382812 79.785156 121.066406 91.082031 155.222656 L 94.722656 166.234375 C 101.410156 186.457031 93.871094 208.675781 76.273438 220.617188 C 56.359375 234.128906 49.671875 260.441406 60.707031 281.863281 L 66.269531 292.65625 C 76.757812 313.007812 97.695312 325.792969 120.542969 325.792969 Z M 120.542969 325.792969 " fill-opacity="1" fill-rule="nonzero"/><path fill="#0a0b0a" d="M 322.988281 287.402344 C 323.21875 304.96875 311.300781 319.800781 305.25 324.992188 L 295.972656 324.992188 C 302.871094 301.558594 314.269531 289.902344 320.65625 286.023438 C 321.71875 285.378906 322.972656 286.152344 322.988281 287.402344 Z M 322.988281 287.402344 " fill-opacity="1" fill-rule="nonzero"/><path fill="#ffffff" d="M 323.96875 229.769531 C 333.46875 265.6875 309.519531 308.226562 299.222656 324.0625 L 278.351562 324.0625 C 287.316406 256.292969 302.34375 239.824219 321.34375 228.691406 C 322.363281 228.09375 323.664062 228.621094 323.96875 229.769531 Z M 323.96875 229.769531 " fill-opacity="1" fill-rule="nonzero"/><path fill="#0a0b0a" d="M 321.808594 229.5 C 322.3125 229.203125 322.929688 229.46875 323.070312 230.007812 C 327.753906 247.703125 324.207031 267.105469 318.148438 284.132812 C 312.199219 300.84375 303.871094 315.15625 298.71875 323.128906 L 279.414062 323.128906 C 283.875 289.90625 289.804688 269.261719 296.90625 255.570312 C 304.058594 241.78125 312.421875 234.996094 321.808594 229.5 Z M 324.863281 229.53125 C 324.398438 227.777344 322.414062 226.984375 320.875 227.886719 C 311.261719 233.519531 302.613281 240.535156 295.261719 254.707031 C 287.9375 268.828125 281.921875 290.011719 277.433594 323.9375 L 277.292969 324.992188 L 299.722656 324.992188 L 299.996094 324.570312 C 305.167969 316.617188 313.773438 301.957031 319.894531 284.761719 C 326.007812 267.578125 329.683594 247.753906 324.863281 229.53125 Z M 324.863281 229.53125 " fill-opacity="1" fill-rule="evenodd"/><path fill="#0a0b0a" d="M 290.320312 251.867188 C 298.527344 281.964844 289.132812 313.246094 282.988281 324.992188 L 267.6875 324.992188 C 264.246094 288.308594 278.234375 261.632812 287.433594 251.148438 C 288.339844 250.113281 289.957031 250.535156 290.320312 251.867188 Z M 290.320312 251.867188 " fill-opacity="1" fill-rule="nonzero"/><path fill="#0a0b0a" d="M 310.976562 255.328125 L 315.96875 241.226562 L 317.71875 241.851562 L 306.28125 274.152344 L 313.792969 271.882812 L 314.328125 273.667969 L 305.511719 276.332031 L 295.109375 305.707031 L 304.472656 302.207031 L 305.117188 303.953125 L 294.296875 308 L 288.5 324.375 L 286.753906 323.75 L 298.527344 290.492188 L 294.175781 278.21875 L 295.921875 277.589844 L 299.511719 287.714844 L 309.925781 258.296875 L 306.679688 247.402344 L 308.457031 246.867188 Z M 310.976562 255.328125 " fill-opacity="1" fill-rule="evenodd"/><path fill="#ffffff" d="M 282.492188 275.902344 L 284.859375 262.816406 L 286.683594 263.152344 L 281.882812 289.707031 L 288.121094 286.402344 L 288.988281 288.054688 L 281.460938 292.039062 L 277.339844 314.816406 L 282.5 310.738281 L 283.648438 312.207031 L 276.839844 317.582031 L 275.554688 324.695312 L 273.730469 324.359375 L 277.03125 306.117188 L 271.585938 298.984375 L 273.058594 297.851562 L 277.476562 303.640625 L 282.078125 278.195312 L 277.671875 273.410156 L 279.03125 272.140625 Z M 282.492188 275.902344 " fill-opacity="1" fill-rule="evenodd"/><path fill="#ffffff" d="M 298.664062 141.542969 L 301.433594 137.707031 C 301.929688 137.023438 303.007812 137.375 303.003906 138.21875 L 302.984375 142.839844 C 302.980469 143.121094 303.117188 143.382812 303.34375 143.546875 L 307.441406 146.511719 C 308.101562 146.988281 307.800781 148.03125 306.984375 148.078125 L 301.882812 148.386719 C 301.636719 148.402344 301.40625 148.523438 301.253906 148.71875 L 297.792969 153.144531 C 297.28125 153.800781 296.226562 153.425781 296.242188 152.589844 L 296.359375 147.324219 C 296.367188 147.070312 296.257812 146.824219 296.066406 146.652344 L 291.757812 142.878906 C 291.121094 142.324219 291.574219 141.28125 292.410156 141.363281 L 297.875 141.898438 C 298.183594 141.929688 298.480469 141.792969 298.664062 141.542969 Z M 298.664062 141.542969 " fill-opacity="1" fill-rule="nonzero"/><path fill="#111f2c" d="M 326.757812 192.75 L 328.097656 192.019531 C 328.835938 191.613281 329.660156 192.394531 329.296875 193.152344 L 328.652344 194.492188 C 328.53125 194.742188 328.539062 195.039062 328.671875 195.28125 L 329.5625 196.910156 C 329.953125 197.625 329.234375 198.433594 328.476562 198.128906 L 326.707031 197.414062 C 326.476562 197.320312 326.21875 197.332031 325.996094 197.441406 L 324.085938 198.394531 C 323.339844 198.769531 322.550781 197.976562 322.925781 197.230469 L 323.789062 195.515625 C 323.902344 195.289062 323.910156 195.019531 323.808594 194.78125 L 322.953125 192.800781 C 322.621094 192.027344 323.476562 191.277344 324.195312 191.714844 L 325.894531 192.734375 C 326.160156 192.894531 326.488281 192.898438 326.757812 192.75 Z M 326.757812 192.75 " fill-opacity="1" fill-rule="nonzero"/><path fill="#ffffff" d="M 81.777344 132.425781 C 81.777344 144.34375 91.433594 154 103.351562 154 C 107.464844 154 111.3125 152.847656 114.582031 150.851562 L 121.078125 153.152344 C 122.117188 153.523438 123.160156 152.601562 122.921875 151.523438 L 121.335938 144.34375 C 123.605469 140.929688 124.925781 136.832031 124.925781 132.425781 C 124.925781 120.511719 115.265625 110.851562 103.351562 110.851562 C 91.433594 110.851562 81.777344 120.511719 81.777344 132.425781 Z M 81.777344 132.425781 " fill-opacity="1" fill-rule="nonzero"/><path fill="#0a0b0a" d="M 103.351562 111.324219 C 91.695312 111.324219 82.246094 120.773438 82.246094 132.425781 C 82.246094 144.082031 91.695312 153.53125 103.351562 153.53125 C 107.375 153.53125 111.136719 152.40625 114.339844 150.449219 L 114.53125 150.332031 L 121.234375 152.710938 C 121.929688 152.957031 122.621094 152.34375 122.464844 151.625 L 120.835938 144.25 L 120.945312 144.085938 C 123.164062 140.746094 124.457031 136.738281 124.457031 132.425781 C 124.457031 120.773438 115.007812 111.324219 103.351562 111.324219 Z M 81.308594 132.425781 C 81.308594 120.253906 91.175781 110.382812 103.351562 110.382812 C 115.523438 110.382812 125.394531 120.253906 125.394531 132.425781 C 125.394531 136.855469 124.085938 140.980469 121.839844 144.4375 L 123.378906 151.421875 C 123.699219 152.863281 122.308594 154.089844 120.921875 153.59375 L 114.636719 151.367188 C 111.335938 153.335938 107.472656 154.46875 103.351562 154.46875 C 91.175781 154.46875 81.308594 144.601562 81.308594 132.425781 Z M 81.308594 132.425781 " fill-opacity="1" fill-rule="evenodd"/><path fill="#111f2c" d="M 100.507812 138.480469 C 100.25 138.480469 100.039062 138.269531 100.042969 138.011719 C 100.082031 136.425781 100.308594 135.144531 100.726562 134.167969 C 101.1875 133.097656 102.023438 132.046875 103.238281 131.015625 C 104.46875 129.96875 105.285156 129.125 105.691406 128.480469 C 106.09375 127.824219 106.296875 127.132812 106.296875 126.410156 C 106.296875 124.230469 105.246094 123.140625 103.136719 123.140625 C 102.136719 123.140625 101.335938 123.4375 100.726562 124.03125 C 100.222656 124.523438 99.921875 125.175781 99.828125 125.992188 C 99.796875 126.246094 99.59375 126.449219 99.339844 126.449219 L 94.394531 126.449219 C 94.132812 126.449219 93.921875 126.234375 93.933594 125.976562 C 94.058594 123.738281 94.882812 121.96875 96.410156 120.664062 C 98.058594 119.273438 100.300781 118.574219 103.136719 118.574219 C 106 118.574219 108.222656 119.242188 109.804688 120.570312 C 111.382812 121.882812 112.171875 123.746094 112.171875 126.160156 C 112.171875 127.253906 111.917969 128.292969 111.402344 129.273438 C 110.890625 130.242188 109.992188 131.316406 108.710938 132.503906 L 107.066406 133.992188 C 106.042969 134.933594 105.453125 136.039062 105.304688 137.300781 L 105.253906 138.042969 C 105.238281 138.289062 105.035156 138.480469 104.785156 138.480469 Z M 99.449219 144.421875 C 99.449219 143.554688 99.753906 142.847656 100.363281 142.292969 C 100.984375 141.726562 101.773438 141.441406 102.734375 141.441406 C 103.691406 141.441406 104.476562 141.726562 105.082031 142.292969 C 105.703125 142.847656 106.015625 143.554688 106.015625 144.421875 C 106.015625 145.273438 105.710938 145.976562 105.101562 146.53125 C 104.507812 147.082031 103.71875 147.359375 102.734375 147.359375 C 101.746094 147.359375 100.949219 147.082031 100.34375 146.53125 C 99.746094 145.976562 99.449219 145.273438 99.449219 144.421875 Z M 99.449219 144.421875 " fill-opacity="1" fill-rule="nonzero"/><path fill="#ffffff" d="M 148.894531 102.078125 C 148.894531 96.78125 153.1875 92.488281 158.484375 92.488281 L 267.566406 92.488281 C 272.863281 92.488281 277.15625 96.78125 277.15625 102.078125 L 277.15625 315.375 C 277.15625 320.667969 272.863281 324.960938 267.566406 324.960938 L 158.484375 324.960938 C 153.1875 324.960938 148.894531 320.667969 148.894531 315.375 Z M 148.894531 102.078125 " fill-opacity="1" fill-rule="nonzero"/><path fill="#0a0b0a" d="M 148.09375 102.078125 C 148.09375 96.339844 152.746094 91.691406 158.484375 91.691406 L 267.566406 91.691406 C 273.304688 91.691406 277.953125 96.339844 277.953125 102.078125 L 277.953125 315.375 C 277.953125 321.109375 273.304688 325.761719 267.566406 325.761719 L 158.484375 325.761719 C 152.746094 325.761719 148.09375 321.109375 148.09375 315.375 Z M 158.484375 93.289062 C 153.628906 93.289062 149.691406 97.222656 149.691406 102.078125 L 149.691406 315.375 C 149.691406 320.226562 153.628906 324.164062 158.484375 324.164062 L 267.566406 324.164062 C 272.421875 324.164062 276.355469 320.226562 276.355469 315.375 L 276.355469 102.078125 C 276.355469 97.222656 272.421875 93.289062 267.566406 93.289062 Z M 158.484375 93.289062 " fill-opacity="1" fill-rule="evenodd"/><path fill="#eeba2b" d="M 252.769531 177.972656 C 252.769531 200.035156 234.882812 217.921875 212.816406 217.921875 C 190.753906 217.921875 172.867188 200.035156 172.867188 177.972656 C 172.867188 155.90625 190.753906 138.019531 212.816406 138.019531 C 234.882812 138.019531 252.769531 155.90625 252.769531 177.972656 Z M 252.769531 177.972656 " fill-opacity="1" fill-rule="nonzero"/><path fill="#ffffff" d="M 269.550781 150.804688 C 269.550781 160.953125 261.320312 169.183594 251.171875 169.183594 C 241.023438 169.183594 232.792969 160.953125 232.792969 150.804688 C 232.792969 140.65625 241.023438 132.425781 251.171875 132.425781 C 261.320312 132.425781 269.550781 140.65625 269.550781 150.804688 Z M 269.550781 150.804688 " fill-opacity="1" fill-rule="nonzero"/><path fill="#0a0b0a" d="M 251.171875 133.226562 C 241.460938 133.226562 233.59375 141.097656 233.59375 150.804688 C 233.59375 160.511719 241.460938 168.382812 251.171875 168.382812 C 260.878906 168.382812 268.75 160.511719 268.75 150.804688 C 268.75 141.097656 260.878906 133.226562 251.171875 133.226562 Z M 231.992188 150.804688 C 231.992188 140.214844 240.578125 131.628906 251.171875 131.628906 C 261.761719 131.628906 270.347656 140.214844 270.347656 150.804688 C 270.347656 161.394531 261.761719 169.980469 251.171875 169.980469 C 240.578125 169.980469 231.992188 161.394531 231.992188 150.804688 Z M 231.992188 150.804688 " fill-opacity="1" fill-rule="evenodd"/><path fill="#111f2c" d="M 246.175781 150.40625 L 240.785156 155.800781 L 246.175781 161.191406 L 251.570312 155.800781 L 256.964844 161.191406 L 262.355469 155.800781 L 256.964844 150.40625 L 262.355469 145.011719 L 256.964844 139.617188 L 251.570312 145.011719 L 246.175781 139.617188 L 240.78125 145.011719 Z M 246.175781 150.40625 " fill-opacity="1" fill-rule="evenodd"/><path fill="#0a0b0a" d="M 187.523438 100.285156 L 183.363281 92.488281 L 242.6875 92.488281 L 237.796875 100.636719 C 236.355469 103.042969 233.753906 104.515625 230.945312 104.515625 L 194.574219 104.515625 C 191.621094 104.515625 188.910156 102.886719 187.523438 100.285156 Z M 187.523438 100.285156 " fill-opacity="1" fill-rule="nonzero"/><path fill="#0a0b0a" d="M 275.582031 97.300781 L 149.648438 97.300781 C 153.816406 93.132812 157.800781 92.355469 159.269531 92.488281 L 265.960938 92.488281 C 271.09375 92.488281 274.511719 95.695312 275.582031 97.300781 Z M 275.582031 97.300781 " fill-opacity="1" fill-rule="nonzero"/><path fill="#0a0b0a" d="M 275.484375 320.402344 L 150.492188 320.402344 C 154.824219 324.640625 157.328125 325.425781 158.855469 325.292969 L 267.121094 325.292969 C 272.453125 325.292969 274.375 322.03125 275.484375 320.402344 Z M 275.484375 320.402344 " fill-opacity="1" fill-rule="nonzero"/><path fill="#111f2c" d="M 167.273438 122.839844 C 167.273438 121.957031 167.988281 121.242188 168.871094 121.242188 L 211.421875 121.242188 C 212.304688 121.242188 213.023438 121.957031 213.023438 122.839844 L 213.023438 124.542969 C 213.023438 125.425781 212.304688 126.140625 211.421875 126.140625 L 168.871094 126.140625 C 167.988281 126.140625 167.273438 125.425781 167.273438 124.542969 Z M 167.273438 122.839844 " fill-opacity="1" fill-rule="nonzero"/><path fill="#0a0b0a" d="M 167.273438 230.707031 C 167.273438 229.824219 167.988281 229.109375 168.871094 229.109375 L 211.421875 229.109375 C 212.304688 229.109375 213.023438 229.824219 213.023438 230.707031 L 213.023438 232.414062 C 213.023438 233.296875 212.304688 234.011719 211.421875 234.011719 L 168.871094 234.011719 C 167.988281 234.011719 167.273438 233.296875 167.273438 232.414062 Z M 167.273438 230.707031 " fill-opacity="1" fill-rule="nonzero"/><path fill="#0a0b0a" d="M 167.273438 273.058594 C 167.273438 272.175781 167.988281 271.457031 168.871094 271.457031 L 194.441406 271.457031 C 195.324219 271.457031 196.039062 272.175781 196.039062 273.058594 L 196.039062 274.65625 C 196.039062 275.539062 195.324219 276.253906 194.441406 276.253906 L 168.871094 276.253906 C 167.988281 276.253906 167.273438 275.539062 167.273438 274.65625 Z M 167.273438 273.058594 " fill-opacity="1" fill-rule="nonzero"/><path fill="#eeba2b" d="M 166.472656 242.695312 C 166.472656 241.371094 167.546875 240.296875 168.871094 240.296875 L 254.367188 240.296875 C 255.691406 240.296875 256.765625 241.371094 256.765625 242.695312 L 256.765625 258.675781 C 256.765625 260 255.691406 261.070312 254.367188 261.070312 L 168.871094 261.070312 C 167.546875 261.070312 166.472656 260 166.472656 258.675781 Z M 168.871094 241.894531 C 168.429688 241.894531 168.070312 242.253906 168.070312 242.695312 L 168.070312 258.675781 C 168.070312 259.117188 168.429688 259.472656 168.871094 259.472656 L 254.367188 259.472656 C 254.808594 259.472656 255.164062 259.117188 255.164062 258.675781 L 255.164062 242.695312 C 255.164062 242.253906 254.808594 241.894531 254.367188 241.894531 Z M 168.871094 241.894531 " fill-opacity="1" fill-rule="evenodd"/><path fill="#eeba2b" d="M 166.472656 284.242188 C 166.472656 282.917969 167.546875 281.847656 168.871094 281.847656 L 254.367188 281.847656 C 255.691406 281.847656 256.765625 282.917969 256.765625 284.242188 L 256.765625 300.222656 C 256.765625 301.546875 255.691406 302.621094 254.367188 302.621094 L 168.871094 302.621094 C 167.546875 302.621094 166.472656 301.546875 166.472656 300.222656 Z M 168.871094 283.445312 C 168.429688 283.445312 168.070312 283.800781 168.070312 284.242188 L 168.070312 300.222656 C 168.070312 300.664062 168.429688 301.023438 168.871094 301.023438 L 254.367188 301.023438 C 254.808594 301.023438 255.164062 300.664062 255.164062 300.222656 L 255.164062 284.242188 C 255.164062 283.800781 254.808594 283.445312 254.367188 283.445312 Z M 168.871094 283.445312 " fill-opacity="1" fill-rule="evenodd"/><path fill="#0a0b0a" d="M 266.554688 103.914062 L 268.152344 103.914062 L 268.152344 110.449219 L 266.554688 110.449219 Z M 266.554688 103.914062 " fill-opacity="1" fill-rule="evenodd"/><path fill="#0a0b0a" d="M 262.46875 104.730469 L 264.066406 104.730469 L 264.066406 110.449219 L 262.46875 110.449219 Z M 262.46875 104.730469 " fill-opacity="1" fill-rule="evenodd"/><path fill="#0a0b0a" d="M 258.382812 106.363281 L 259.980469 106.363281 L 259.980469 110.449219 L 258.382812 110.449219 Z M 258.382812 106.363281 " fill-opacity="1" fill-rule="evenodd"/><path fill="#0a0b0a" d="M 254.296875 107.996094 L 255.898438 107.996094 L 255.898438 110.449219 L 254.296875 110.449219 Z M 254.296875 107.996094 " fill-opacity="1" fill-rule="evenodd"/><path fill="#0a0b0a" d="M 212.800781 154.53125 C 205.527344 154.53125 199.632812 160.523438 199.632812 167.917969 L 199.632812 177.082031 C 199.632812 178.167969 200.515625 179.046875 201.601562 179.046875 C 202.6875 179.046875 203.570312 178.167969 203.570312 177.082031 L 203.570312 167.664062 C 203.570312 162.484375 207.703125 158.285156 212.800781 158.285156 C 217.894531 158.285156 222.027344 162.484375 222.027344 167.664062 L 222.027344 176.589844 C 222.027344 177.675781 222.910156 178.558594 223.996094 178.558594 C 225.085938 178.558594 225.964844 177.675781 225.964844 176.589844 L 225.964844 167.917969 C 225.964844 160.523438 220.070312 154.53125 212.800781 154.53125 Z M 212.800781 154.53125 " fill-opacity="1" fill-rule="evenodd"/><path fill="#111f2c" d="M 196 176.90625 C 196 175.582031 197.074219 174.507812 198.398438 174.507812 L 227.199219 174.507812 C 228.523438 174.507812 229.597656 175.582031 229.597656 176.90625 L 229.597656 198.445312 C 229.597656 199.769531 228.523438 200.839844 227.199219 200.839844 L 198.398438 200.839844 C 197.074219 200.839844 196 199.769531 196 198.445312 Z M 196 176.90625 " fill-opacity="1" fill-rule="nonzero"/><path fill="#ffffff" d="M 214.941406 188.765625 C 215.722656 188.136719 216.21875 187.175781 216.21875 186.101562 C 216.21875 184.210938 214.6875 182.679688 212.800781 182.679688 C 210.914062 182.679688 209.382812 184.210938 209.382812 186.101562 C 209.382812 187.273438 209.972656 188.308594 210.875 188.925781 L 210.109375 192.128906 C 209.996094 192.605469 210.359375 193.066406 210.851562 193.066406 L 215.003906 193.066406 C 215.496094 193.066406 215.855469 192.605469 215.742188 192.128906 Z M 214.941406 188.765625 " fill-opacity="1" fill-rule="evenodd"/><path fill="#0a0b0a" d="M 262.886719 248.285156 L 243.449219 248.285156 C 242.242188 248.285156 241.472656 247 242.039062 245.9375 L 251.757812 227.753906 C 252.363281 226.625 253.976562 226.625 254.578125 227.753906 L 264.296875 245.9375 C 264.867188 247 264.09375 248.285156 262.886719 248.285156 Z M 262.886719 248.285156 " fill-opacity="1" fill-rule="nonzero"/><path fill="#ffffff" d="M 252.277344 241.457031 L 254.027344 241.457031 L 254.304688 233.902344 L 252.003906 233.902344 Z M 254.367188 243.808594 C 254.367188 243.433594 254.253906 243.128906 254.027344 242.890625 C 253.796875 242.648438 253.511719 242.527344 253.167969 242.527344 C 252.828125 242.527344 252.542969 242.648438 252.316406 242.890625 C 252.085938 243.128906 251.96875 243.433594 251.96875 243.808594 C 251.96875 244.183594 252.085938 244.492188 252.316406 244.734375 C 252.542969 244.972656 252.828125 245.089844 253.167969 245.089844 C 253.511719 245.089844 253.796875 244.972656 254.027344 244.734375 C 254.253906 244.492188 254.367188 244.183594 254.367188 243.808594 Z M 254.367188 243.808594 " fill-opacity="1" fill-rule="nonzero"/><path fill="#111f2c" d="M 179.332031 250.320312 C 179.332031 251.445312 178.421875 252.355469 177.296875 252.355469 C 176.171875 252.355469 175.261719 251.445312 175.261719 250.320312 C 175.261719 249.199219 176.171875 248.285156 177.296875 248.285156 C 178.421875 248.285156 179.332031 249.199219 179.332031 250.320312 Z M 179.332031 250.320312 " fill-opacity="1" fill-rule="nonzero"/><path fill="#111f2c" d="M 189.097656 250.320312 C 189.097656 251.445312 188.1875 252.355469 187.0625 252.355469 C 185.941406 252.355469 185.027344 251.445312 185.027344 250.320312 C 185.027344 249.199219 185.941406 248.285156 187.0625 248.285156 C 188.1875 248.285156 189.097656 249.199219 189.097656 250.320312 Z M 189.097656 250.320312 " fill-opacity="1" fill-rule="nonzero"/><path fill="#111f2c" d="M 198.863281 250.320312 C 198.863281 251.445312 197.953125 252.355469 196.832031 252.355469 C 195.707031 252.355469 194.796875 251.445312 194.796875 250.320312 C 194.796875 249.199219 195.707031 248.285156 196.832031 248.285156 C 197.953125 248.285156 198.863281 249.199219 198.863281 250.320312 Z M 198.863281 250.320312 " fill-opacity="1" fill-rule="nonzero"/><path fill="#111f2c" d="M 208.632812 250.320312 C 208.632812 251.445312 207.71875 252.355469 206.597656 252.355469 C 205.472656 252.355469 204.5625 251.445312 204.5625 250.320312 C 204.5625 249.199219 205.472656 248.285156 206.597656 248.285156 C 207.71875 248.285156 208.632812 249.199219 208.632812 250.320312 Z M 208.632812 250.320312 " fill-opacity="1" fill-rule="nonzero"/><path fill="#111f2c" d="M 218.398438 250.320312 C 218.398438 251.445312 217.488281 252.355469 216.363281 252.355469 C 215.238281 252.355469 214.328125 251.445312 214.328125 250.320312 C 214.328125 249.199219 215.238281 248.285156 216.363281 248.285156 C 217.488281 248.285156 218.398438 249.199219 218.398438 250.320312 Z M 218.398438 250.320312 " fill-opacity="1" fill-rule="nonzero"/><path fill="#111f2c" d="M 228.164062 250.320312 C 228.164062 251.445312 227.253906 252.355469 226.128906 252.355469 C 225.003906 252.355469 224.09375 251.445312 224.09375 250.320312 C 224.09375 249.199219 225.003906 248.285156 226.128906 248.285156 C 227.253906 248.285156 228.164062 249.199219 228.164062 250.320312 Z M 228.164062 250.320312 " fill-opacity="1" fill-rule="nonzero"/><path fill="#efcb96" d="M 119.78125 172.632812 C 108.453125 180.648438 113.214844 194.902344 115.347656 200.421875 L 114.414062 211.691406 C 115.382812 215.242188 118.894531 222.335938 125.203125 222.335938 C 131.507812 222.335938 134.398438 216.277344 135.054688 213.25 L 134.070312 204.699219 C 141.457031 202.027344 141.953125 191.335938 141.457031 182.785156 C 140.875 172.632812 129.761719 165.570312 119.78125 172.632812 Z M 119.78125 172.632812 " fill-opacity="1" fill-rule="nonzero"/><path fill="#0a0b0a" d="M 115.707031 197.628906 L 114.722656 207.320312 C 114.398438 206.601562 113.644531 204.519531 113.253906 201.9375 C 112.761719 198.707031 104.910156 186.324219 107.363281 177.171875 C 109.324219 169.847656 114.722656 170.171875 117.179688 171.25 C 118.652344 168.558594 127.484375 159.40625 140.246094 160.480469 C 153.003906 161.558594 154.476562 179.863281 144.171875 182.554688 C 135.925781 184.707031 126.667969 183.453125 123.066406 182.554688 C 122.742188 183.273438 121.792969 185.675781 120.613281 189.554688 C 119.140625 194.398438 119.140625 195.476562 118.652344 192.246094 C 118.160156 189.015625 116.195312 183.09375 113.742188 189.015625 C 111.777344 193.753906 114.234375 196.730469 115.707031 197.628906 Z M 115.707031 197.628906 " fill-opacity="1" fill-rule="nonzero"/><path fill="#0a0b0a" d="M 122.832031 204.503906 C 126.210938 206.492188 131.433594 205.332031 133.621094 204.503906 L 134.089844 207.984375 C 129.210938 209.179688 124.554688 206.164062 122.832031 204.503906 Z M 122.832031 204.503906 " fill-opacity="1" fill-rule="nonzero"/><path fill="#111f2c" d="M 124.769531 216.359375 C 131.835938 216.359375 135.257812 212.425781 136.285156 210.074219 C 136.40625 209.800781 136.667969 209.605469 136.964844 209.621094 C 140.867188 209.816406 146.398438 212.183594 147.785156 212.660156 C 147.824219 212.675781 147.855469 212.6875 147.890625 212.707031 C 158.789062 218.566406 169.128906 228.933594 175.605469 266.320312 C 177.707031 281.925781 181.453125 314.484375 179.65625 319.886719 C 177.855469 325.285156 165.410156 326.035156 159.410156 325.738281 L 80.679688 325.738281 C 78.597656 325.738281 79.242188 322.453125 80.121094 319.957031 C 80.320312 319.394531 79.78125 318.773438 79.191406 318.855469 C 75.601562 319.351562 68.757812 318.703125 61.335938 313.132812 C 46.941406 301.429688 63.585938 254.617188 74.382812 232.5625 C 82.867188 215.234375 103.039062 210.089844 112.5625 209.628906 C 112.871094 209.613281 113.136719 209.808594 113.261719 210.089844 C 114.296875 212.441406 117.71875 216.359375 124.769531 216.359375 Z M 124.769531 216.359375 " fill-opacity="1" fill-rule="nonzero"/><path fill="#0a0b0a" d="M 77.542969 318.019531 C 72.59375 307.5 62.117188 297.105469 56.511719 292.375 C 56.085938 292.011719 55.441406 292.296875 55.425781 292.859375 C 55.289062 297.695312 55.941406 306.546875 59.535156 311.78125 C 63.210938 317.128906 72.070312 318.753906 76.921875 318.960938 C 77.421875 318.980469 77.757812 318.472656 77.542969 318.019531 Z M 77.542969 318.019531 " fill-opacity="1" fill-rule="nonzero"/><path fill="#0a0b0a" d="M 123.421875 291.078125 C 102.90625 311.960938 85.78125 318.683594 79.78125 319.433594 L 78.882812 323.484375 C 96.515625 320.605469 115.921875 300.679688 123.421875 291.078125 Z M 123.421875 291.078125 " fill-opacity="1" fill-rule="nonzero"/><path fill="#ffffff" d="M 128.367188 284.355469 L 128.367188 253.859375 C 128.367188 253.519531 128.613281 253.226562 128.949219 253.171875 L 143.742188 250.707031 C 144.171875 250.632812 144.558594 250.964844 144.550781 251.398438 L 144.121094 281.078125 C 144.117188 281.398438 143.894531 281.675781 143.582031 281.746094 L 129.21875 285.03125 C 128.78125 285.132812 128.367188 284.800781 128.367188 284.355469 Z M 128.367188 284.355469 " fill-opacity="1" fill-rule="nonzero"/><path fill="#0a0b0a" d="M 143.628906 250.019531 C 144.484375 249.875 145.257812 250.542969 145.246094 251.410156 L 144.816406 281.089844 C 144.808594 281.730469 144.359375 282.28125 143.738281 282.425781 L 129.371094 285.710938 C 128.503906 285.910156 127.671875 285.246094 127.671875 284.355469 L 127.671875 253.859375 C 127.671875 253.179688 128.164062 252.597656 128.835938 252.484375 Z M 143.855469 251.390625 L 129.0625 253.859375 L 129.0625 284.355469 L 143.425781 281.070312 Z M 143.855469 251.390625 " fill-opacity="1" fill-rule="evenodd"/><path fill="#0a0b0a" d="M 89.679688 275.324219 C 88.957031 276.765625 81.28125 280.425781 77.53125 282.074219 C 81.492188 280.996094 104.675781 272.921875 115.769531 269.023438 C 112.621094 269.023438 94.175781 274.421875 93.726562 273.523438 C 93.367188 272.804688 94.777344 263.621094 95.527344 259.121094 C 93.878906 263.921875 90.398438 273.882812 89.679688 275.324219 Z M 89.679688 275.324219 " fill-opacity="1" fill-rule="nonzero"/><path fill="#efcb96" d="M 122.519531 267.222656 C 120.71875 270.101562 118.769531 271.421875 118.019531 271.722656 L 121.171875 282.074219 C 125.21875 279.824219 131.96875 280.273438 136.914062 277.574219 C 141.863281 274.875 140.964844 261.820312 138.265625 262.722656 C 136.105469 263.441406 130.765625 265.722656 128.367188 266.773438 L 128.367188 260.46875 C 125.21875 261.820312 124.769531 263.621094 122.519531 267.222656 Z M 122.519531 267.222656 " fill-opacity="1" fill-rule="nonzero"/><path fill="#111f2c" d="M 150.957031 211.117188 C 147.449219 211.117188 138.867188 219.3125 138.867188 223.214844 C 138.085938 226.335938 158.757812 270.816406 173.964844 279.011719 C 189.175781 287.207031 201.65625 277.0625 200.488281 261.453125 C 199.257812 245.066406 155.03125 211.117188 150.957031 211.117188 Z M 150.957031 211.117188 " fill-opacity="1" fill-rule="nonzero"/><path fill="#0a0b0a" d="M 200.488281 260.28125 C 186.132812 263.714844 179.945312 275.5 178.648438 280.960938 C 182.027344 281.875 188.394531 284.863281 195.804688 277.453125 C 201.121094 272.136719 201.265625 263.925781 200.488281 260.28125 Z M 200.488281 260.28125 " fill-opacity="1" fill-rule="nonzero"/><path fill="#0a0b0a" d="M 156.808594 259.894531 C 166.167969 275.5 174.484375 280.183594 177.476562 280.574219 L 178.257812 285.644531 C 175.917969 285.253906 170.300781 281.742188 161.875 270.816406 C 150.019531 255.835938 141.207031 232.839844 138.867188 223.214844 C 140.816406 229.847656 145.105469 240.382812 156.808594 259.894531 Z M 156.808594 259.894531 " fill-opacity="1" fill-rule="nonzero"/><path fill="#efcb96" d="M 139.648438 199.476562 C 140.195312 200.308594 145.285156 208.621094 147.449219 212.671875 C 145.398438 214.753906 141.097656 218.921875 140.277344 218.921875 C 139.253906 218.921875 133.445312 217.1875 131.058594 214.0625 C 128.667969 210.9375 132.421875 207.117188 132.421875 206.769531 C 132.421875 206.421875 126.277344 203.644531 125.253906 202.253906 C 124.226562 200.867188 125.605469 199.414062 127.167969 199.804688 C 128.058594 199.804688 133.796875 202.925781 135.746094 203.703125 C 136.566406 203.425781 137.699219 202.535156 139.648438 199.476562 Z M 139.648438 199.476562 " fill-opacity="1" fill-rule="nonzero"/><path fill="#0a0b0a" d="M 124.828125 201.753906 C 125.140625 203.9375 128.078125 205.785156 129.507812 206.4375 L 130.675781 205.65625 C 130.15625 205.394531 128.726562 204.640625 127.167969 203.703125 C 125.605469 202.769531 124.957031 202.015625 124.828125 201.753906 Z M 124.828125 201.753906 " fill-opacity="1" fill-rule="nonzero"/><path fill="#0a0b0a" d="M 130.289062 215.410156 C 127.480469 212.601562 128.859375 209.296875 129.898438 207.996094 L 131.847656 207.605469 C 129.507812 211.507812 130.9375 214.109375 131.847656 214.628906 Z M 130.289062 215.410156 " fill-opacity="1" fill-rule="nonzero"/></svg>