<svg xmlns="http://www.w3.org/2000/svg" xmlns:xlink="http://www.w3.org/1999/xlink" width="1080" zoomAndPan="magnify" viewBox="0 0 810 809.999993" height="1080" preserveAspectRatio="xMidYMid meet" version="1.0"><defs><clipPath id="c189f53743"><path d="M 36.238281 36.238281 L 773.488281 36.238281 L 773.488281 773.488281 L 36.238281 773.488281 Z M 36.238281 36.238281 " clip-rule="nonzero"/></clipPath></defs><g clip-path="url(#c189f53743)"><path fill="#737373" d="M 404.996094 36.238281 C 201.664062 36.238281 36.238281 201.664062 36.238281 404.996094 C 36.238281 608.328125 201.664062 773.757812 404.996094 773.757812 C 608.328125 773.757812 773.757812 608.328125 773.757812 404.996094 C 773.757812 201.664062 608.328125 36.238281 404.996094 36.238281 Z M 404.996094 132.433594 C 466.882812 132.433594 517.226562 182.777344 517.226562 244.667969 C 517.226562 306.554688 466.882812 356.898438 404.996094 356.898438 C 343.109375 356.898438 292.765625 306.554688 292.765625 244.667969 C 292.765625 182.777344 343.109375 132.433594 404.996094 132.433594 Z M 597.394531 613.425781 L 212.601562 613.425781 C 203.75 613.425781 196.566406 606.242188 196.566406 597.394531 C 196.566406 482.46875 290.070312 388.964844 404.996094 388.964844 C 519.921875 388.964844 613.425781 482.46875 613.425781 597.394531 C 613.425781 606.242188 606.242188 613.425781 597.394531 613.425781 Z M 597.394531 613.425781 " fill-opacity="1" fill-rule="nonzero"/></g></svg>