<svg xmlns="http://www.w3.org/2000/svg" xmlns:xlink="http://www.w3.org/1999/xlink" width="520" zoomAndPan="magnify" viewBox="0 0 390 389.999986" height="520" preserveAspectRatio="xMidYMid meet" version="1.0"><path fill="#0d0d0d" d="M 70.570312 137.601562 C 68.226562 138.898438 64.8125 141.125 61.6875 144.769531 C 54.523438 153.117188 57.050781 159.386719 51.550781 169.871094 C 46.429688 179.636719 41.984375 178.5 34.988281 189.449219 C 30.011719 197.238281 27.847656 204.726562 26.800781 209.628906 C 28.945312 209.355469 32.214844 209.160156 36.03125 209.859375 C 48.515625 212.15625 52.433594 221.425781 63.410156 225.59375 C 67.777344 227.25 74.390625 228.53125 83.828125 226.332031 C 83.828125 226.332031 76.164062 143.796875 76.164062 143.796875 C 74.296875 141.734375 72.433594 139.667969 70.570312 137.601562 Z M 70.570312 137.601562 " fill-opacity="1" fill-rule="nonzero"/><path fill="#0d0d0d" d="M 95.914062 283.792969 C 95.226562 288.332031 94.535156 292.871094 93.84375 297.410156 C 93.84375 297.410156 120.585938 297.410156 120.585938 297.410156 C 120.800781 296.664062 121.085938 295.238281 120.363281 294.054688 C 119.730469 293.023438 118.628906 292.660156 117.921875 292.429688 C 110.453125 289.964844 109.449219 289.496094 108.742188 288.652344 C 108.082031 287.863281 107.371094 286.382812 107.855469 283.398438 C 103.875 283.53125 99.894531 283.660156 95.914062 283.792969 Z M 95.914062 283.792969 " fill-opacity="1" fill-rule="nonzero"/><path fill="#111f2c" d="M 102.898438 182.898438 C 107.410156 197.75 111.925781 212.601562 116.441406 227.449219 C 110.617188 227.648438 104.796875 227.84375 98.976562 228.042969 C 93.300781 212.5 87.628906 196.960938 81.953125 181.417969 C 81.953125 181.417969 102.898438 182.898438 102.898438 182.898438 Z M 102.898438 182.898438 " fill-opacity="1" fill-rule="nonzero"/><path fill="#111f2c" d="M 116.6875 229.496094 C 116.6875 234.445312 112.679688 238.453125 107.730469 238.453125 C 102.785156 238.453125 98.777344 234.445312 98.777344 229.496094 C 98.777344 224.550781 102.785156 220.542969 107.730469 220.542969 C 112.679688 220.542969 116.6875 224.550781 116.6875 229.496094 Z M 116.6875 229.496094 " fill-opacity="1" fill-rule="nonzero"/><path fill="#111f2c" d="M 116.390625 232.039062 C 113.59375 249.40625 110.800781 266.773438 108.003906 284.140625 C 108.003906 284.140625 95.667969 284.140625 95.667969 284.140625 C 95.667969 284.140625 99.023438 226.710938 99.023438 226.710938 C 104.8125 228.488281 110.601562 230.261719 116.390625 232.039062 Z M 116.390625 232.039062 " fill-opacity="1" fill-rule="nonzero"/><path fill="#0d0d0d" d="M 74.757812 283.792969 C 74.757812 283.792969 73.019531 297.410156 73.019531 297.410156 C 73.019531 297.410156 46.277344 297.410156 46.277344 297.410156 C 46.269531 296.664062 46.382812 295.238281 47.4375 294.054688 C 48.355469 293.023438 49.5625 292.664062 50.335938 292.429688 C 58.492188 289.964844 59.628906 289.496094 60.570312 288.652344 C 61.453125 287.863281 62.578125 286.382812 62.929688 283.398438 C 66.871094 283.53125 70.816406 283.660156 74.757812 283.792969 Z M 74.757812 283.792969 " fill-opacity="1" fill-rule="nonzero"/><path fill="#111f2c" d="M 90.339844 202.632812 C 85.945312 230.914062 80.746094 258.09375 74.949219 284.140625 C 74.949219 284.140625 61.132812 284.140625 61.132812 284.140625 C 65.277344 249.800781 69.421875 215.460938 73.566406 181.121094 C 73.566406 181.121094 93.496094 181.121094 93.496094 181.121094 C 92.515625 188.234375 91.464844 195.40625 90.339844 202.632812 Z M 90.339844 202.632812 " fill-opacity="1" fill-rule="nonzero"/><path fill="#0d0d0d" d="M 109.484375 136.523438 C 107.414062 152.210938 105.339844 167.898438 103.265625 183.589844 C 93.136719 183.6875 83.003906 183.785156 72.875 183.886719 C 72.515625 168 72.152344 152.109375 71.789062 136.226562 C 75.136719 134.917969 78.488281 133.617188 81.832031 132.320312 C 83.007812 131.859375 84.179688 131.402344 85.355469 130.945312 C 88.648438 131.078125 91.9375 131.210938 95.222656 131.339844 C 96.222656 131.703125 97.222656 132.066406 98.222656 132.429688 C 101.976562 133.792969 105.730469 135.15625 109.484375 136.523438 Z M 109.484375 136.523438 " fill-opacity="1" fill-rule="nonzero"/><path fill="#dda162" d="M 98.222656 132.429688 C 95.597656 134.714844 92.964844 136.996094 90.34375 139.28125 C 87.503906 136.964844 84.671875 134.640625 81.832031 132.320312 C 83.007812 131.859375 84.179688 131.402344 85.355469 130.945312 C 88.648438 131.078125 91.9375 131.210938 95.222656 131.339844 C 96.222656 131.703125 97.222656 132.066406 98.222656 132.429688 Z M 98.222656 132.429688 " fill-opacity="1" fill-rule="nonzero"/><path fill="#ffffff" d="M 82.113281 132.210938 C 82.113281 132.210938 90.4375 139.1875 90.4375 139.1875 C 90.4375 139.1875 81.707031 144.414062 81.707031 144.414062 C 81.707031 144.414062 78.617188 133.570312 78.617188 133.570312 C 78.617188 133.570312 82.113281 132.210938 82.113281 132.210938 Z M 82.113281 132.210938 " fill-opacity="1" fill-rule="nonzero"/><path fill="#ffffff" d="M 98.03125 132.359375 C 98.03125 132.359375 90.4375 139.1875 90.4375 139.1875 C 90.4375 139.1875 99.097656 144.339844 99.097656 144.339844 C 99.097656 144.339844 102.144531 133.855469 102.144531 133.855469 C 102.144531 133.855469 98.03125 132.359375 98.03125 132.359375 Z M 98.03125 132.359375 " fill-opacity="1" fill-rule="nonzero"/><path fill="#dda162" d="M 96.089844 125.46875 C 95.992188 127.601562 95.894531 129.738281 95.792969 131.871094 C 95.765625 132.425781 95.742188 132.976562 95.71875 133.535156 C 91.992188 133.386719 88.265625 133.242188 84.542969 133.089844 C 85.011719 129.21875 85.480469 125.34375 85.949219 121.472656 C 86.726562 121.777344 87.496094 122.082031 88.273438 122.386719 C 90.878906 123.414062 93.484375 124.441406 96.089844 125.46875 Z M 96.089844 125.46875 " fill-opacity="1" fill-rule="nonzero"/><path fill="#111f2c" d="M 96.089844 125.46875 C 95.992188 127.601562 95.894531 129.738281 95.792969 131.871094 C 94.523438 131.625 92.941406 131.070312 91.5 129.835938 C 88.835938 127.558594 88.308594 124.386719 88.273438 122.386719 C 90.878906 123.414062 93.484375 124.441406 96.089844 125.46875 Z M 96.089844 125.46875 " fill-opacity="1" fill-rule="nonzero"/><path fill="#111f2c" d="M 102.234375 108.59375 C 104.527344 106.5 105.5 103.707031 104.679688 101.5625 C 103.605469 98.765625 99.917969 98.226562 98.460938 98.011719 C 91.042969 96.917969 84.867188 103.558594 83.734375 104.820312 C 89.902344 106.078125 96.066406 107.335938 102.234375 108.59375 Z M 102.234375 108.59375 " fill-opacity="1" fill-rule="nonzero"/><path fill="#dda162" d="M 103.691406 111.992188 C 103.691406 111.992188 103.691406 123.792969 103.691406 123.792969 C 103.691406 123.792969 103.691406 123.8125 103.691406 123.8125 C 103.691406 124.296875 103.628906 127.835938 101.125 129.414062 C 99.519531 130.425781 97.597656 130.039062 96.191406 129.707031 C 92.074219 128.746094 88.972656 126.085938 86.945312 123.804688 C 85.828125 122.550781 85.0625 121.023438 84.738281 119.375 C 84.386719 117.644531 84.042969 115.910156 83.695312 114.175781 C 82.839844 109.886719 85.03125 105.53125 89.03125 103.757812 C 89.066406 103.738281 89.101562 103.722656 89.136719 103.710938 C 90.730469 103.015625 92.304688 102.683594 93.800781 102.582031 C 99.175781 102.230469 103.691406 106.605469 103.691406 111.992188 Z M 103.691406 111.992188 " fill-opacity="1" fill-rule="nonzero"/><path fill="#111f2c" d="M 84.546875 117.574219 C 85.351562 117.171875 87.53125 115.988281 88.9375 114.070312 C 91.417969 110.699219 90.539062 106.394531 90.371094 105.632812 C 88.378906 105.207031 86.390625 104.777344 84.398438 104.351562 C 83.636719 104.730469 81.746094 105.800781 80.796875 108 C 80.683594 108.265625 80.265625 109.289062 80.253906 111.058594 C 80.238281 114.257812 81.582031 116.851562 82.574219 118.363281 C 83.078125 118.207031 83.769531 117.960938 84.546875 117.574219 Z M 84.546875 117.574219 " fill-opacity="1" fill-rule="nonzero"/><path fill="#dda162" d="M 87.855469 117.277344 C 87.628906 117.070312 86.5625 116.128906 85.089844 116.242188 C 83.375 116.371094 81.699219 117.882812 81.734375 119.792969 C 81.761719 121.261719 82.792969 122.683594 84.300781 123.050781 C 85.933594 123.445312 87.222656 122.378906 87.359375 122.261719 C 87.523438 120.597656 87.6875 118.9375 87.855469 117.277344 Z M 87.855469 117.277344 " fill-opacity="1" fill-rule="nonzero"/><path fill="#111f2c" d="M 88.617188 107.1875 C 88.617188 107.1875 102.382812 105.410156 102.382812 105.410156 C 101.53125 104.414062 100.160156 103.140625 98.164062 102.375 C 92.121094 100.0625 86.265625 104.726562 85.878906 105.042969 C 86.792969 105.757812 87.707031 106.472656 88.617188 107.1875 Z M 88.617188 107.1875 " fill-opacity="1" fill-rule="nonzero"/><path fill="#ffffff" d="M 96.332031 115.402344 C 96.332031 115.402344 95.476562 116.3125 94.359375 116.609375 C 94.085938 116.6875 93.792969 116.726562 93.496094 116.703125 C 91.984375 116.597656 90.871094 115.007812 90.871094 115.007812 C 90.871094 115.007812 91.707031 114.121094 92.804688 113.804688 C 93.089844 113.722656 93.398438 113.679688 93.710938 113.703125 C 95.214844 113.8125 96.332031 115.402344 96.332031 115.402344 Z M 96.332031 115.402344 " fill-opacity="1" fill-rule="nonzero"/><path fill="#111f2c" d="M 96.332031 115.402344 C 96.332031 115.402344 95.476562 116.3125 94.359375 116.609375 C 93.417969 116.300781 92.738281 115.410156 92.738281 114.367188 C 92.738281 114.171875 92.761719 113.984375 92.804688 113.804688 C 93.089844 113.722656 93.398438 113.679688 93.710938 113.703125 C 95.214844 113.8125 96.332031 115.402344 96.332031 115.402344 Z M 96.332031 115.402344 " fill-opacity="1" fill-rule="nonzero"/><path fill="#ffffff" d="M 103.6875 114.21875 C 103.6875 114.21875 103.6875 116.027344 103.6875 116.027344 C 103.394531 116.25 103.054688 116.457031 102.675781 116.582031 C 102.484375 116.648438 102.28125 116.691406 102.070312 116.703125 C 100.5625 116.8125 99.234375 115.402344 99.234375 115.402344 C 99.234375 115.402344 100.03125 114.261719 101.195312 113.84375 C 101.40625 113.769531 101.625 113.71875 101.855469 113.703125 C 102.535156 113.652344 103.1875 113.917969 103.6875 114.21875 Z M 103.6875 114.21875 " fill-opacity="1" fill-rule="nonzero"/><path fill="#111f2c" d="M 103.6875 114.21875 C 103.6875 114.21875 103.6875 116.027344 103.6875 116.027344 C 103.394531 116.25 103.054688 116.457031 102.675781 116.582031 C 101.777344 116.25 101.136719 115.382812 101.136719 114.367188 C 101.136719 114.1875 101.15625 114.011719 101.195312 113.84375 C 101.40625 113.769531 101.625 113.71875 101.855469 113.703125 C 102.535156 113.652344 103.1875 113.917969 103.6875 114.21875 Z M 103.6875 114.21875 " fill-opacity="1" fill-rule="nonzero"/><path stroke-linecap="round" transform="matrix(0.333029, 0, 0, 0.333029, 98.926053, 118.115535)" fill="none" stroke-linejoin="miter" d="M -1.17376 -6.223371 C -0.575559 -3.478681 0.0109134 -0.745721 0.609115 1.998968 C 0.679492 2.233557 1.172128 3.828761 0.233773 5.189376 C -0.153299 5.74066 -0.634206 6.057355 -0.950901 6.221567 " stroke="#111f2c" stroke-width="0.75" stroke-opacity="1" stroke-miterlimit="10"/><path stroke-linecap="round" transform="matrix(0.333029, 0, 0, 0.333029, 95.242082, 121.359578)" fill="none" stroke-linejoin="miter" d="M -4.257471 -3.449067 C -3.964235 -2.581088 -3.107986 -0.375953 -0.855933 1.371734 C 1.220178 2.978667 3.343207 3.34228 4.258104 3.447845 " stroke="#111f2c" stroke-width="0.75" stroke-opacity="1" stroke-miterlimit="10"/><path stroke-linecap="round" transform="matrix(0.333029, 0, 0, 0.333029, 101.698864, 110.39258)" fill="none" stroke-linejoin="miter" d="M -4.948759 0.932485 C -4.10424 0.369471 -2.180611 -0.733096 0.493702 -0.850391 C 2.487707 -0.932497 4.059452 -0.428131 4.93916 -0.0645179 " stroke="#111f2c" stroke-width="0.75" stroke-opacity="1" stroke-miterlimit="10"/><path stroke-linecap="round" transform="matrix(0.333029, 0, 0, 0.333029, 93.299525, 110.344283)" fill="none" stroke-linejoin="miter" d="M 8.27303 0.960215 C 6.619178 0.197801 3.276288 -1.080708 -1.051877 -0.810931 C -4.265744 -0.623259 -6.764115 0.350284 -8.277213 1.07751 " stroke="#111f2c" stroke-width="0.75" stroke-opacity="1" stroke-miterlimit="10"/><path fill="#dda162" d="M 141.308594 195.527344 C 142.132812 196.824219 143.769531 198.996094 146.585938 200.609375 C 147.992188 201.417969 149.320312 201.871094 150.386719 202.140625 C 150.433594 199.179688 150.484375 196.21875 150.535156 193.257812 C 147.804688 192.042969 145.074219 190.824219 142.34375 189.609375 C 141.996094 191.582031 141.652344 193.554688 141.308594 195.527344 Z M 141.308594 195.527344 " fill-opacity="1" fill-rule="nonzero"/><path stroke-linecap="butt" transform="matrix(0.333029, 0, 0, 0.333029, 148.707975, 154.849704)" fill="none" stroke-linejoin="miter" d="M 50.668357 0.0055811 C 50.668357 27.9803 27.983616 50.665041 -0.00283297 50.665041 C -27.977552 50.665041 -50.662293 27.9803 -50.662293 0.0055811 C -50.662293 -27.980868 -27.977552 -50.665608 -0.00283297 -50.665608 C 27.983616 -50.665608 50.668357 -27.980868 50.668357 0.0055811 Z M 50.668357 0.0055811 " stroke="#0d0d0d" stroke-width="17" stroke-opacity="1" stroke-miterlimit="10"/><path fill="#0d0d0d" d="M 156.589844 297.167969 C 156.589844 297.167969 147.511719 170.46875 147.511719 170.46875 C 147.511719 170.46875 153.160156 170.066406 153.160156 170.066406 C 153.160156 170.066406 162.238281 297.164062 162.238281 297.164062 C 162.238281 297.164062 156.589844 297.167969 156.589844 297.167969 Z M 156.589844 297.167969 " fill-opacity="1" fill-rule="nonzero"/><path fill="#0d0d0d" d="M 171.484375 279.542969 C 171.484375 279.542969 159.179688 280.429688 159.179688 280.429688 C 159.179688 280.429688 158.691406 273.636719 158.691406 273.636719 C 158.691406 273.636719 170.996094 272.753906 170.996094 272.753906 C 170.996094 272.753906 171.484375 279.542969 171.484375 279.542969 Z M 171.484375 279.542969 " fill-opacity="1" fill-rule="nonzero"/><path fill="#0d0d0d" d="M 172.074219 291.386719 C 172.074219 291.386719 159.773438 292.269531 159.773438 292.269531 C 159.773438 292.269531 159.285156 285.480469 159.285156 285.480469 C 159.285156 285.480469 171.585938 284.59375 171.585938 284.59375 C 171.585938 284.59375 172.074219 291.386719 172.074219 291.386719 Z M 172.074219 291.386719 " fill-opacity="1" fill-rule="nonzero"/><path fill="#0d0d0d" d="M 165.828125 297.164062 C 165.828125 297.164062 158.03125 297.164062 158.03125 297.164062 C 158.03125 297.164062 158.03125 276.246094 158.03125 276.246094 C 158.03125 276.246094 164.398438 276.246094 164.398438 276.246094 C 164.398438 276.246094 165.828125 297.164062 165.828125 297.164062 Z M 165.828125 297.164062 " fill-opacity="1" fill-rule="nonzero"/><path fill="#dda162" d="M 143.625 186.15625 C 146.246094 187.546875 148.863281 188.941406 151.484375 190.332031 C 152.367188 190.804688 152.957031 191.6875 153.054688 192.6875 C 153.054688 192.6875 153.734375 199.792969 153.734375 199.792969 C 153.78125 200.265625 153.480469 200.730469 153.015625 200.820312 C 152.910156 200.839844 152.804688 200.839844 152.703125 200.808594 C 152.257812 200.664062 152.125 199.972656 152.0625 199.671875 C 151.84375 198.621094 151.390625 197.078125 150.484375 194.640625 C 149.824219 194.652344 149.046875 194.585938 148.214844 194.34375 C 145.054688 193.4375 143.445312 190.746094 142.984375 189.902344 C 143.199219 188.652344 143.414062 187.40625 143.625 186.15625 Z M 143.625 186.15625 " fill-opacity="1" fill-rule="nonzero"/><path fill="#dda162" d="M 152.0625 191.320312 C 153.667969 192.328125 155.800781 193.40625 156.828125 194.339844 C 157.0625 194.550781 156.679688 198.566406 156.523438 201.179688 C 156.492188 201.6875 156.214844 202.148438 155.78125 202.414062 C 155.410156 202.644531 154.933594 202.859375 154.363281 202.972656 C 153.3125 203.179688 152.371094 202.945312 151.644531 202.613281 C 150.707031 202.183594 150.132812 201.214844 150.171875 200.179688 C 150.269531 197.511719 150.367188 194.839844 150.464844 192.167969 C 151.175781 191.792969 151.351562 191.699219 152.0625 191.320312 Z M 152.0625 191.320312 " fill-opacity="1" fill-rule="nonzero"/><path fill="#0d0d0d" d="M 128.949219 171.796875 C 134.203125 176.433594 139.457031 181.074219 144.710938 185.710938 C 143.648438 189.757812 142.589844 193.800781 141.527344 197.847656 C 133.78125 192.863281 126.035156 187.882812 118.292969 182.898438 C 121.84375 179.199219 125.394531 175.496094 128.949219 171.796875 Z M 128.949219 171.796875 " fill-opacity="1" fill-rule="nonzero"/><path fill="#0d0d0d" d="M 130.796875 176.828125 C 130.796875 181.109375 127.328125 184.574219 123.050781 184.574219 C 118.773438 184.574219 115.304688 181.109375 115.304688 176.828125 C 115.304688 172.550781 118.773438 169.082031 123.050781 169.082031 C 127.328125 169.082031 130.796875 172.550781 130.796875 176.828125 Z M 130.796875 176.828125 " fill-opacity="1" fill-rule="nonzero"/><path fill="#0d0d0d" d="M 107.953125 135.976562 C 108.691406 136.214844 109.824219 136.640625 111.0625 137.410156 C 114.394531 139.476562 116.007812 142.484375 116.933594 144.316406 C 119.160156 148.714844 123.578125 158.464844 128.726562 171.648438 C 124.582031 174.660156 120.4375 177.667969 116.292969 180.679688 C 112.59375 172.339844 108.890625 164.003906 105.191406 155.664062 C 106.113281 149.101562 107.035156 142.539062 107.953125 135.976562 Z M 107.953125 135.976562 " fill-opacity="1" fill-rule="nonzero"/><path fill="#dda162" d="M 77.28125 195.1875 C 79.242188 196.726562 81.34375 198.546875 83.488281 200.683594 C 86.117188 203.296875 88.28125 205.863281 90.054688 208.210938 C 90.242188 208.601562 90.160156 209.050781 89.890625 209.285156 C 89.539062 209.589844 88.878906 209.523438 88.535156 209.015625 C 86.988281 207.4375 85.4375 205.859375 83.886719 204.28125 C 84.816406 207.394531 85.742188 210.511719 86.671875 213.628906 C 86.902344 214.144531 86.726562 214.710938 86.367188 214.925781 C 85.929688 215.1875 85.1875 214.960938 84.933594 214.292969 C 84.296875 212.832031 83.648438 211.363281 82.984375 209.886719 C 82.273438 208.300781 81.558594 206.734375 80.84375 205.1875 C 81.082031 206.757812 81.222656 208.816406 80.917969 211.1875 C 80.757812 212.441406 80.496094 213.558594 80.210938 214.519531 C 80.179688 214.625 79.578125 215.179688 79.207031 215.023438 C 78.898438 214.898438 78.871094 214.328125 78.855469 213.75 C 78.804688 211.898438 78.921875 210.613281 78.929688 209.792969 C 78.9375 209.136719 78.875 208.160156 78.535156 206.949219 C 78.34375 208.613281 78.023438 210.4375 77.515625 212.378906 C 77.324219 213.105469 77.117188 213.804688 76.902344 214.46875 C 76.832031 214.882812 76.574219 215.171875 76.363281 215.167969 C 76.113281 215.167969 75.792969 214.78125 75.847656 214.210938 C 75.984375 212.160156 76.117188 210.109375 76.253906 208.058594 C 75.425781 207.15625 74.589844 206.203125 73.75 205.199219 C 72.074219 203.199219 70.585938 201.230469 69.269531 199.339844 C 71.941406 197.957031 74.609375 196.570312 77.28125 195.1875 Z M 77.28125 195.1875 " fill-opacity="1" fill-rule="nonzero"/><path fill="#dda162" d="M 77.554688 196.09375 C 78.316406 196.382812 79.117188 196.660156 79.957031 196.917969 C 82.457031 197.695312 84.816406 198.179688 86.960938 198.472656 C 87.273438 198.515625 87.550781 198.710938 87.65625 199.003906 C 87.699219 199.113281 87.714844 199.234375 87.675781 199.34375 C 87.570312 199.636719 87.140625 199.714844 86.941406 199.753906 C 85.601562 200.003906 81.847656 199.339844 80.921875 199.171875 C 79.796875 198.144531 78.675781 197.121094 77.554688 196.09375 Z M 77.554688 196.09375 " fill-opacity="1" fill-rule="nonzero"/><path fill="#0d0d0d" d="M 65.832031 168.542969 C 69.960938 177.367188 74.089844 186.195312 78.21875 195.019531 C 75.007812 197.285156 71.792969 199.554688 68.582031 201.820312 C 63.09375 192.242188 57.601562 182.664062 52.113281 173.085938 C 56.6875 171.570312 61.257812 170.058594 65.832031 168.542969 Z M 65.832031 168.542969 " fill-opacity="1" fill-rule="nonzero"/><path stroke-linecap="butt" transform="matrix(0.333029, 0, 0, 0.333029, 62.509286, 191.223501)" fill="none" stroke-linejoin="miter" d="M 18.234857 31.81944 C 6.083155 10.612609 -6.080276 -10.605952 -18.231978 -31.824513 " stroke="#111f2c" stroke-width="1" stroke-opacity="1" stroke-miterlimit="10"/><path stroke-linecap="butt" transform="matrix(0.333029, 0, 0, 0.333029, 73.365383, 184.646177)" fill="none" stroke-linejoin="miter" d="M -14.574278 -31.146609 C -4.8623 -10.385497 4.861407 10.387345 14.573385 31.148457 " stroke="#111f2c" stroke-width="1" stroke-opacity="1" stroke-miterlimit="10"/><path fill="#0d0d0d" d="M 66.953125 171.796875 C 66.953125 175.910156 63.617188 179.246094 59.503906 179.246094 C 55.390625 179.246094 52.054688 175.910156 52.054688 171.796875 C 52.054688 167.683594 55.390625 164.347656 59.503906 164.347656 C 63.617188 164.347656 66.953125 167.683594 66.953125 171.796875 Z M 66.953125 171.796875 " fill-opacity="1" fill-rule="nonzero"/><path fill="#0d0d0d" d="M 72.109375 136.125 C 70.273438 136.488281 67.511719 137.335938 65.300781 139.605469 C 63.890625 141.054688 63.234375 142.535156 62.933594 143.230469 C 61.179688 147.300781 58.335938 153.765625 52.792969 168.503906 C 57.753906 169.464844 61.492188 169.984375 66.707031 170.910156 C 70.039062 164.691406 73.367188 158.476562 76.699219 152.257812 C 75.167969 146.882812 73.640625 141.503906 72.109375 136.125 Z M 72.109375 136.125 " fill-opacity="1" fill-rule="nonzero"/><path stroke-linecap="butt" transform="matrix(0.333029, 0, 0, 0.333029, 71.703568, 161.584221)" fill="none" stroke-linejoin="miter" d="M -15.003286 28.003333 C -4.998072 9.330061 4.995412 -9.331481 15.000626 -28.004753 " stroke="#111f2c" stroke-width="1" stroke-opacity="1" stroke-miterlimit="10"/><path stroke-linecap="butt" transform="matrix(0.333029, 0, 0, 0.333029, 62.45267, 152.314997)" fill="none" stroke-linejoin="miter" d="M 28.996546 -48.614305 C 23.483708 -47.523467 15.190993 -44.978178 8.552129 -38.163372 C 4.3178 -33.811749 2.347254 -29.366291 1.444087 -27.27845 C -3.822433 -15.056371 -12.361467 4.355855 -29.005545 48.61104 " stroke="#111f2c" stroke-width="1" stroke-opacity="1" stroke-miterlimit="10"/><path fill="#111f2c" d="M 293.351562 297.277344 C 293.351562 297.277344 188.855469 297.277344 188.855469 297.277344 C 186.65625 297.277344 184.859375 295.476562 184.859375 293.28125 C 184.859375 293.28125 184.859375 87.246094 184.859375 87.246094 C 184.859375 85.046875 186.65625 83.25 188.855469 83.25 C 188.855469 83.25 293.351562 83.25 293.351562 83.25 C 295.550781 83.25 297.351562 85.046875 297.351562 87.246094 C 297.351562 87.246094 297.351562 293.28125 297.351562 293.28125 C 297.351562 295.476562 295.550781 297.277344 293.351562 297.277344 Z M 293.351562 297.277344 " fill-opacity="1" fill-rule="nonzero"/><path fill="#0d0d0d" d="M 287.101562 297.277344 C 287.101562 297.277344 182.605469 297.277344 182.605469 297.277344 C 180.40625 297.277344 178.609375 295.476562 178.609375 293.28125 C 178.609375 293.28125 178.609375 87.246094 178.609375 87.246094 C 178.609375 85.046875 180.40625 83.25 182.605469 83.25 C 182.605469 83.25 287.101562 83.25 287.101562 83.25 C 289.300781 83.25 291.097656 85.046875 291.097656 87.246094 C 291.097656 87.246094 291.097656 293.28125 291.097656 293.28125 C 291.097656 295.476562 289.300781 297.277344 287.101562 297.277344 Z M 287.101562 297.277344 " fill-opacity="1" fill-rule="nonzero"/><path fill="#ffffff" d="M 259.796875 151.335938 C 259.796875 157.191406 257.773438 162.578125 254.382812 166.824219 C 249.832031 172.539062 242.808594 176.203125 234.929688 176.203125 C 226.550781 176.203125 219.132812 172.054688 214.628906 165.699219 C 211.753906 161.640625 210.0625 156.6875 210.0625 151.335938 C 210.0625 137.601562 221.199219 126.46875 234.929688 126.46875 C 248.664062 126.46875 259.796875 137.601562 259.796875 151.335938 Z M 259.796875 151.335938 " fill-opacity="1" fill-rule="nonzero"/><path fill="#111f2c" d="M 242.257812 142.085938 C 242.257812 146.128906 238.976562 149.410156 234.929688 149.410156 C 230.886719 149.410156 227.605469 146.128906 227.605469 142.085938 C 227.605469 138.039062 230.886719 134.757812 234.929688 134.757812 C 238.976562 134.757812 242.257812 138.039062 242.257812 142.085938 Z M 242.257812 142.085938 " fill-opacity="1" fill-rule="nonzero"/><path fill="#111f2c" d="M 251.585938 161.683594 C 247.773438 166.472656 241.886719 169.539062 235.285156 169.539062 C 228.261719 169.539062 222.046875 166.0625 218.273438 160.738281 C 221.78125 155.429688 227.800781 151.925781 234.636719 151.925781 C 241.871094 151.925781 248.191406 155.847656 251.585938 161.683594 Z M 251.585938 161.683594 " fill-opacity="1" fill-rule="nonzero"/><path stroke-linecap="butt" transform="matrix(0.333029, 0, 0, 0.333029, 234.931306, 93.510989)" fill="none" stroke-linejoin="miter" d="M 41.482176 6.523762 C 41.482176 6.523762 -41.480168 6.523762 -41.480168 6.523762 C -45.069377 6.523762 -48.001738 3.579672 -48.001738 0.0021923 C -48.001738 -3.587017 -45.069377 -6.519377 -41.480168 -6.519377 C -41.480168 -6.519377 41.482176 -6.519377 41.482176 -6.519377 C 45.071385 -6.519377 48.003745 -3.587017 48.003745 0.0021923 C 48.003745 3.579672 45.071385 6.523762 41.482176 6.523762 Z M 41.482176 6.523762 " stroke="#ffffff" stroke-width="1" stroke-opacity="1" stroke-miterlimit="10"/><path fill="#ffffff" d="M 262.382812 199.585938 C 262.382812 199.585938 207.324219 199.585938 207.324219 199.585938 C 204.1875 199.585938 201.625 197.023438 201.625 193.886719 C 201.625 190.753906 204.1875 188.191406 207.324219 188.191406 C 207.324219 188.191406 262.382812 188.191406 262.382812 188.191406 C 265.519531 188.191406 268.082031 190.753906 268.082031 193.886719 C 268.082031 197.023438 265.519531 199.585938 262.382812 199.585938 Z M 262.382812 199.585938 " fill-opacity="1" fill-rule="nonzero"/><path stroke-linecap="butt" transform="matrix(0.333029, 0, 0, 0.333029, 232.038959, 279.513962)" fill="none" stroke-linejoin="miter" d="M 23.107313 0.00499345 C 23.107313 12.766626 12.761945 23.111994 0.000312092 23.111994 C -12.761321 23.111994 -23.106689 12.766626 -23.106689 0.00499345 C -23.106689 -12.768369 -12.761321 -23.113737 0.000312092 -23.113737 C 12.761945 -23.113737 23.107313 -12.768369 23.107313 0.00499345 Z M 23.107313 0.00499345 " stroke="#ffffff" stroke-width="2" stroke-opacity="1" stroke-miterlimit="10"/><path fill="#111f2c" d="M 245.976562 223.761719 C 245.976562 223.761719 225.945312 223.761719 225.945312 223.761719 C 221.929688 223.761719 218.644531 220.476562 218.644531 216.460938 C 218.644531 212.445312 221.929688 209.160156 225.945312 209.160156 C 225.945312 209.160156 245.976562 209.160156 245.976562 209.160156 C 249.992188 209.160156 253.277344 212.445312 253.277344 216.460938 C 253.277344 220.476562 249.992188 223.761719 245.976562 223.761719 Z M 245.976562 223.761719 " fill-opacity="1" fill-rule="nonzero"/><path fill="#ffffff" d="M 244.867188 221.691406 C 244.867188 221.691406 224.835938 221.691406 224.835938 221.691406 C 220.820312 221.691406 217.535156 218.40625 217.535156 214.390625 C 217.535156 210.371094 220.820312 207.085938 224.835938 207.085938 C 224.835938 207.085938 244.867188 207.085938 244.867188 207.085938 C 248.886719 207.085938 252.171875 210.371094 252.171875 214.390625 C 252.171875 218.40625 248.886719 221.691406 244.867188 221.691406 Z M 244.867188 221.691406 " fill-opacity="1" fill-rule="nonzero"/><path fill="#b6ccd7" d="M 244.746094 216.5625 C 244.746094 216.5625 245.367188 216.5625 245.367188 216.5625 C 245.367188 216.5625 245.367188 215.914062 245.367188 215.914062 C 245.367188 215.914062 244.746094 215.914062 244.746094 215.914062 C 244.746094 215.914062 244.746094 216.5625 244.746094 216.5625 Z M 244.746094 213.488281 C 244.746094 213.488281 244.910156 215.472656 244.910156 215.472656 C 244.910156 215.472656 245.226562 215.472656 245.226562 215.472656 C 245.226562 215.472656 245.378906 213.488281 245.378906 213.488281 C 245.378906 213.488281 245.378906 211.984375 245.378906 211.984375 C 245.378906 211.984375 244.746094 211.984375 244.746094 211.984375 C 244.746094 211.984375 244.746094 213.488281 244.746094 213.488281 Z M 244.746094 213.488281 " fill-opacity="1" fill-rule="nonzero"/><path fill="#b6ccd7" d="M 239.882812 216.5625 C 239.882812 216.5625 240.476562 216.5625 240.476562 216.5625 C 240.476562 216.5625 240.476562 212.867188 240.476562 212.867188 C 240.476562 212.867188 242.792969 216.5625 242.792969 216.5625 C 242.792969 216.5625 243.492188 216.5625 243.492188 216.5625 C 243.492188 216.5625 243.492188 211.984375 243.492188 211.984375 C 243.492188 211.984375 242.898438 211.984375 242.898438 211.984375 C 242.898438 211.984375 242.898438 215.683594 242.898438 215.683594 C 242.898438 215.683594 240.613281 211.984375 240.613281 211.984375 C 240.613281 211.984375 239.882812 211.984375 239.882812 211.984375 C 239.882812 211.984375 239.882812 216.5625 239.882812 216.5625 Z M 239.882812 216.5625 " fill-opacity="1" fill-rule="nonzero"/><path fill="#b6ccd7" d="M 238.25 216.5625 C 238.25 216.5625 238.878906 216.5625 238.878906 216.5625 C 238.878906 216.5625 238.878906 211.984375 238.878906 211.984375 C 238.878906 211.984375 238.25 211.984375 238.25 211.984375 C 238.25 211.984375 238.25 216.5625 238.25 216.5625 Z M 238.25 216.5625 " fill-opacity="1" fill-rule="nonzero"/><path fill="#b6ccd7" d="M 235.09375 211.863281 C 234.476562 211.863281 233.972656 212.082031 233.582031 212.511719 C 233.171875 212.964844 232.96875 213.574219 232.96875 214.34375 C 232.96875 215.113281 233.175781 215.714844 233.597656 216.15625 C 233.980469 216.507812 234.4375 216.683594 234.972656 216.683594 C 235.386719 216.683594 235.726562 216.605469 235.992188 216.453125 C 236.152344 216.363281 236.335938 216.203125 236.542969 215.972656 C 236.542969 215.972656 236.691406 216.5625 236.691406 216.5625 C 236.691406 216.5625 237.089844 216.5625 237.089844 216.5625 C 237.089844 216.5625 237.089844 214.113281 237.089844 214.113281 C 237.089844 214.113281 235.082031 214.113281 235.082031 214.113281 C 235.082031 214.113281 235.082031 214.625 235.082031 214.625 C 235.082031 214.625 236.515625 214.625 236.515625 214.625 C 236.507812 215.164062 236.371094 215.550781 236.105469 215.789062 C 235.839844 216.03125 235.503906 216.152344 235.101562 216.152344 C 234.570312 216.152344 234.1875 215.980469 233.953125 215.636719 C 233.71875 215.296875 233.601562 214.851562 233.601562 214.308594 C 233.601562 213.679688 233.746094 213.203125 234.027344 212.886719 C 234.3125 212.570312 234.664062 212.410156 235.078125 212.410156 C 235.425781 212.410156 235.71875 212.484375 235.949219 212.640625 C 236.175781 212.792969 236.328125 213.035156 236.402344 213.371094 C 236.402344 213.371094 237.015625 213.371094 237.015625 213.371094 C 236.917969 212.773438 236.640625 212.351562 236.191406 212.113281 C 235.882812 211.949219 235.515625 211.863281 235.09375 211.863281 Z M 235.09375 211.863281 " fill-opacity="1" fill-rule="nonzero"/><path fill="#b6ccd7" d="M 230.21875 216.144531 C 229.640625 216.144531 229.226562 215.96875 228.96875 215.621094 C 228.710938 215.273438 228.585938 214.84375 228.585938 214.339844 C 228.585938 213.703125 228.734375 213.222656 229.035156 212.898438 C 229.332031 212.574219 229.71875 212.410156 230.191406 212.410156 C 230.679688 212.410156 231.066406 212.574219 231.347656 212.902344 C 231.628906 213.230469 231.769531 213.664062 231.769531 214.203125 C 231.769531 214.714844 231.648438 215.164062 231.402344 215.554688 C 231.160156 215.949219 230.765625 216.144531 230.21875 216.144531 Z M 230.15625 211.859375 C 229.382812 211.859375 228.796875 212.140625 228.402344 212.707031 C 228.097656 213.148438 227.941406 213.675781 227.941406 214.296875 C 227.941406 214.980469 228.121094 215.550781 228.480469 215.996094 C 228.882812 216.464844 229.4375 216.695312 230.144531 216.695312 C 230.898438 216.695312 231.476562 216.429688 231.886719 215.898438 C 232.234375 215.445312 232.40625 214.875 232.40625 214.191406 C 232.40625 213.5625 232.253906 213.042969 231.949219 212.636719 C 231.5625 212.117188 230.964844 211.859375 230.15625 211.859375 Z M 230.15625 211.859375 " fill-opacity="1" fill-rule="nonzero"/><path fill="#b6ccd7" d="M 224.628906 216.5625 C 224.628906 216.5625 227.546875 216.5625 227.546875 216.5625 C 227.546875 216.5625 227.546875 216.015625 227.546875 216.015625 C 227.546875 216.015625 225.25 216.015625 225.25 216.015625 C 225.25 216.015625 225.25 211.984375 225.25 211.984375 C 225.25 211.984375 224.628906 211.984375 224.628906 211.984375 C 224.628906 211.984375 224.628906 216.5625 224.628906 216.5625 Z M 224.628906 216.5625 " fill-opacity="1" fill-rule="nonzero"/><path fill="#0d0d0d" d="M 227.335938 192.339844 C 227.335938 192.339844 226.144531 193.90625 226.144531 193.90625 C 226.144531 193.90625 226.144531 193.929688 226.144531 193.929688 C 226.144531 193.929688 228.035156 193.679688 228.035156 193.679688 C 228.035156 193.679688 228.035156 194.53125 228.035156 194.53125 C 228.035156 194.53125 226.144531 194.304688 226.144531 194.304688 C 226.144531 194.304688 226.144531 194.332031 226.144531 194.332031 C 226.144531 194.332031 227.347656 195.835938 227.347656 195.835938 C 227.347656 195.835938 226.558594 196.285156 226.558594 196.285156 C 226.558594 196.285156 225.808594 194.53125 225.808594 194.53125 C 225.808594 194.53125 225.78125 194.53125 225.78125 194.53125 C 225.78125 194.53125 224.96875 196.296875 224.96875 196.296875 C 224.96875 196.296875 224.253906 195.847656 224.253906 195.847656 C 224.253906 195.847656 225.445312 194.320312 225.445312 194.320312 C 225.445312 194.320312 225.445312 194.292969 225.445312 194.292969 C 225.445312 194.292969 223.589844 194.53125 223.589844 194.53125 C 223.589844 194.53125 223.589844 193.679688 223.589844 193.679688 C 223.589844 193.679688 225.429688 193.917969 225.429688 193.917969 C 225.429688 193.917969 225.429688 193.894531 225.429688 193.894531 C 225.429688 193.894531 224.253906 192.367188 224.253906 192.367188 C 224.253906 192.367188 225.019531 191.925781 225.019531 191.925781 C 225.019531 191.925781 225.792969 193.667969 225.792969 193.667969 C 225.792969 193.667969 225.820312 193.667969 225.820312 193.667969 C 225.820312 193.667969 226.582031 191.914062 226.582031 191.914062 C 226.582031 191.914062 227.335938 192.339844 227.335938 192.339844 Z M 227.335938 192.339844 " fill-opacity="1" fill-rule="nonzero"/><path fill="#0d0d0d" d="M 233.828125 192.339844 C 233.828125 192.339844 232.640625 193.90625 232.640625 193.90625 C 232.640625 193.90625 232.640625 193.929688 232.640625 193.929688 C 232.640625 193.929688 234.53125 193.679688 234.53125 193.679688 C 234.53125 193.679688 234.53125 194.53125 234.53125 194.53125 C 234.53125 194.53125 232.640625 194.304688 232.640625 194.304688 C 232.640625 194.304688 232.640625 194.332031 232.640625 194.332031 C 232.640625 194.332031 233.839844 195.835938 233.839844 195.835938 C 233.839844 195.835938 233.050781 196.285156 233.050781 196.285156 C 233.050781 196.285156 232.300781 194.53125 232.300781 194.53125 C 232.300781 194.53125 232.277344 194.53125 232.277344 194.53125 C 232.277344 194.53125 231.460938 196.296875 231.460938 196.296875 C 231.460938 196.296875 230.75 195.847656 230.75 195.847656 C 230.75 195.847656 231.9375 194.320312 231.9375 194.320312 C 231.9375 194.320312 231.9375 194.292969 231.9375 194.292969 C 231.9375 194.292969 230.085938 194.53125 230.085938 194.53125 C 230.085938 194.53125 230.085938 193.679688 230.085938 193.679688 C 230.085938 193.679688 231.925781 193.917969 231.925781 193.917969 C 231.925781 193.917969 231.925781 193.894531 231.925781 193.894531 C 231.925781 193.894531 230.75 192.367188 230.75 192.367188 C 230.75 192.367188 231.511719 191.925781 231.511719 191.925781 C 231.511719 191.925781 232.289062 193.667969 232.289062 193.667969 C 232.289062 193.667969 232.3125 193.667969 232.3125 193.667969 C 232.3125 193.667969 233.078125 191.914062 233.078125 191.914062 C 233.078125 191.914062 233.828125 192.339844 233.828125 192.339844 Z M 233.828125 192.339844 " fill-opacity="1" fill-rule="nonzero"/><path fill="#0d0d0d" d="M 240.324219 192.339844 C 240.324219 192.339844 239.132812 193.90625 239.132812 193.90625 C 239.132812 193.90625 239.132812 193.929688 239.132812 193.929688 C 239.132812 193.929688 241.023438 193.679688 241.023438 193.679688 C 241.023438 193.679688 241.023438 194.53125 241.023438 194.53125 C 241.023438 194.53125 239.132812 194.304688 239.132812 194.304688 C 239.132812 194.304688 239.132812 194.332031 239.132812 194.332031 C 239.132812 194.332031 240.335938 195.835938 240.335938 195.835938 C 240.335938 195.835938 239.546875 196.285156 239.546875 196.285156 C 239.546875 196.285156 238.796875 194.53125 238.796875 194.53125 C 238.796875 194.53125 238.769531 194.53125 238.769531 194.53125 C 238.769531 194.53125 237.957031 196.296875 237.957031 196.296875 C 237.957031 196.296875 237.242188 195.847656 237.242188 195.847656 C 237.242188 195.847656 238.433594 194.320312 238.433594 194.320312 C 238.433594 194.320312 238.433594 194.292969 238.433594 194.292969 C 238.433594 194.292969 236.578125 194.53125 236.578125 194.53125 C 236.578125 194.53125 236.578125 193.679688 236.578125 193.679688 C 236.578125 193.679688 238.421875 193.917969 238.421875 193.917969 C 238.421875 193.917969 238.421875 193.894531 238.421875 193.894531 C 238.421875 193.894531 237.242188 192.367188 237.242188 192.367188 C 237.242188 192.367188 238.007812 191.925781 238.007812 191.925781 C 238.007812 191.925781 238.785156 193.667969 238.785156 193.667969 C 238.785156 193.667969 238.808594 193.667969 238.808594 193.667969 C 238.808594 193.667969 239.574219 191.914062 239.574219 191.914062 C 239.574219 191.914062 240.324219 192.339844 240.324219 192.339844 Z M 240.324219 192.339844 " fill-opacity="1" fill-rule="nonzero"/><path fill="#0d0d0d" d="M 246.816406 192.339844 C 246.816406 192.339844 245.628906 193.90625 245.628906 193.90625 C 245.628906 193.90625 245.628906 193.929688 245.628906 193.929688 C 245.628906 193.929688 247.519531 193.679688 247.519531 193.679688 C 247.519531 193.679688 247.519531 194.53125 247.519531 194.53125 C 247.519531 194.53125 245.628906 194.304688 245.628906 194.304688 C 245.628906 194.304688 245.628906 194.332031 245.628906 194.332031 C 245.628906 194.332031 246.832031 195.835938 246.832031 195.835938 C 246.832031 195.835938 246.042969 196.285156 246.042969 196.285156 C 246.042969 196.285156 245.289062 194.53125 245.289062 194.53125 C 245.289062 194.53125 245.265625 194.53125 245.265625 194.53125 C 245.265625 194.53125 244.449219 196.296875 244.449219 196.296875 C 244.449219 196.296875 243.738281 195.847656 243.738281 195.847656 C 243.738281 195.847656 244.925781 194.320312 244.925781 194.320312 C 244.925781 194.320312 244.925781 194.292969 244.925781 194.292969 C 244.925781 194.292969 243.074219 194.53125 243.074219 194.53125 C 243.074219 194.53125 243.074219 193.679688 243.074219 193.679688 C 243.074219 193.679688 244.914062 193.917969 244.914062 193.917969 C 244.914062 193.917969 244.914062 193.894531 244.914062 193.894531 C 244.914062 193.894531 243.738281 192.367188 243.738281 192.367188 C 243.738281 192.367188 244.5 191.925781 244.5 191.925781 C 244.5 191.925781 245.277344 193.667969 245.277344 193.667969 C 245.277344 193.667969 245.300781 193.667969 245.300781 193.667969 C 245.300781 193.667969 246.066406 191.914062 246.066406 191.914062 C 246.066406 191.914062 246.816406 192.339844 246.816406 192.339844 Z M 246.816406 192.339844 " fill-opacity="1" fill-rule="nonzero"/><path fill="#111f2c" d="M 190.164062 130.582031 C 190.164062 130.582031 164.054688 130.582031 164.054688 130.582031 C 161.359375 130.582031 159.171875 128.394531 159.171875 125.695312 C 159.171875 125.695312 159.171875 99.585938 159.171875 99.585938 C 159.171875 96.890625 161.359375 94.703125 164.054688 94.703125 C 164.054688 94.703125 190.164062 94.703125 190.164062 94.703125 C 192.863281 94.703125 195.050781 96.890625 195.050781 99.585938 C 195.050781 99.585938 195.050781 125.695312 195.050781 125.695312 C 195.050781 128.394531 192.863281 130.582031 190.164062 130.582031 Z M 190.164062 130.582031 " fill-opacity="1" fill-rule="nonzero"/><path fill="#ffffff" d="M 183.683594 123.875 C 183.683594 123.875 170.539062 123.875 170.539062 123.875 C 169.386719 123.875 168.453125 122.941406 168.453125 121.789062 C 168.453125 121.789062 168.453125 111.929688 168.453125 111.929688 C 168.453125 110.777344 169.386719 109.84375 170.539062 109.84375 C 170.539062 109.84375 183.683594 109.84375 183.683594 109.84375 C 184.835938 109.84375 185.769531 110.777344 185.769531 111.929688 C 185.769531 111.929688 185.769531 121.789062 185.769531 121.789062 C 185.769531 122.941406 184.835938 123.875 183.683594 123.875 Z M 183.683594 123.875 " fill-opacity="1" fill-rule="nonzero"/><path stroke-linecap="butt" transform="matrix(0.299727, 0, 0, 0.299727, 177.111058, 109.489019)" fill="none" stroke-linejoin="miter" d="M -0.00561539 31.106628 C -8.67237 31.106628 -15.710036 24.081995 -15.710036 15.402208 C -15.710036 15.402208 -15.710036 -15.407128 -15.710036 -15.407128 C -15.710036 -24.073883 -8.67237 -31.111548 -0.00561539 -31.111548 C 8.674172 -31.111548 15.698805 -24.073883 15.698805 -15.407128 C 15.698805 -15.407128 15.698805 15.402208 15.698805 15.402208 C 15.698805 24.081995 8.674172 31.106628 -0.00561539 31.106628 Z M -0.00561539 31.106628 " stroke="#ffffff" stroke-width="7" stroke-opacity="1" stroke-miterlimit="10"/><path fill="#111f2c" d="M 178.476562 116.226562 C 178.476562 116.980469 177.863281 117.59375 177.109375 117.59375 C 176.355469 117.59375 175.746094 116.980469 175.746094 116.226562 C 175.746094 115.472656 176.355469 114.863281 177.109375 114.863281 C 177.863281 114.863281 178.476562 115.472656 178.476562 116.226562 Z M 178.476562 116.226562 " fill-opacity="1" fill-rule="nonzero"/><path fill="#111f2c" d="M 177.109375 120.089844 C 176.929688 120.089844 176.777344 119.941406 176.777344 119.757812 C 176.777344 119.757812 176.777344 117.257812 176.777344 117.257812 C 176.777344 117.078125 176.929688 116.925781 177.109375 116.925781 C 177.292969 116.925781 177.445312 117.078125 177.445312 117.257812 C 177.445312 117.257812 177.445312 119.757812 177.445312 119.757812 C 177.445312 119.941406 177.292969 120.089844 177.109375 120.089844 Z M 177.109375 120.089844 " fill-opacity="1" fill-rule="nonzero"/><path stroke-linecap="butt" transform="matrix(0.333029, 0, 0, 0.333029, 28.798031, 297.33068)" fill="none" stroke-linejoin="miter" d="M 0.500894 0.496695 C 0.500894 0.496695 960.497077 0.496695 960.497077 0.496695 " stroke="#111f2c" stroke-width="1" stroke-opacity="1" stroke-miterlimit="10"/></svg>