<svg xmlns="http://www.w3.org/2000/svg" xmlns:xlink="http://www.w3.org/1999/xlink" width="520" zoomAndPan="magnify" viewBox="0 0 390 389.999986" height="520" preserveAspectRatio="xMidYMid meet" version="1.0"><defs><clipPath id="9e7c735b14"><path d="M 40 160.578125 L 376 160.578125 L 376 229.578125 L 40 229.578125 Z M 40 160.578125 " clip-rule="nonzero"/></clipPath><clipPath id="835a93b75b"><path d="M 14 160.578125 L 106 160.578125 L 106 229.578125 L 14 229.578125 Z M 14 160.578125 " clip-rule="nonzero"/></clipPath></defs><g clip-path="url(#9e7c735b14)"><path fill="#ffffff" d="M 341.472656 160.578125 L 75.308594 160.578125 C 56.246094 160.578125 40.898438 175.925781 40.898438 194.992188 C 40.898438 214.054688 56.246094 229.402344 75.308594 229.402344 L 341.472656 229.402344 C 360.539062 229.402344 375.886719 214.054688 375.886719 194.992188 C 375.886719 175.925781 360.539062 160.578125 341.472656 160.578125 Z M 341.472656 160.578125 " fill-opacity="1" fill-rule="nonzero"/></g><g clip-path="url(#835a93b75b)"><path fill="#ffffff" d="M 100.683594 160.578125 C 102.296875 160.578125 103.878906 160.699219 105.429688 160.910156 L 105.429688 229.074219 C 103.878906 229.285156 102.296875 229.402344 100.683594 229.402344 L 48.492188 229.402344 C 29.429688 229.402344 14.082031 214.054688 14.082031 194.992188 C 14.082031 175.925781 29.429688 160.578125 48.492188 160.578125 Z M 100.683594 160.578125 " fill-opacity="1" fill-rule="nonzero"/></g><path fill="#151f28" d="M 339.757812 166.539062 C 355.519531 166.539062 368.210938 179.226562 368.210938 194.992188 C 368.210938 210.753906 355.519531 223.445312 339.757812 223.445312 L 108.867188 223.445312 C 110.199219 223.445312 111.507812 223.347656 112.789062 223.171875 L 112.789062 166.8125 C 111.507812 166.636719 110.199219 166.539062 108.867188 166.539062 Z M 339.757812 166.539062 " fill-opacity="1" fill-rule="nonzero"/><path fill="#151f28" d="M 56.75 172.132812 C 56.617188 172.132812 56.484375 172.183594 56.382812 172.285156 L 48.683594 179.984375 L 63.324219 194.625 C 63.527344 194.828125 63.527344 195.15625 63.324219 195.359375 L 48.683594 210 L 56.382812 217.699219 C 56.585938 217.902344 56.914062 217.902344 57.117188 217.699219 L 79.457031 195.359375 C 79.660156 195.15625 79.660156 194.828125 79.457031 194.625 L 57.117188 172.285156 C 57.015625 172.183594 56.882812 172.132812 56.75 172.132812 Z M 56.75 172.132812 " fill-opacity="1" fill-rule="evenodd"/><path fill="#ffffff" d="M 189.667969 185.117188 C 187.96875 185.117188 186.546875 185.414062 185.40625 186.003906 C 183.910156 186.773438 182.773438 187.875 182 189.316406 C 181.222656 190.753906 180.832031 192.402344 180.832031 194.253906 C 180.832031 194.472656 180.839844 194.691406 180.851562 194.910156 C 180.839844 195.136719 180.832031 195.363281 180.832031 195.59375 C 180.832031 197.300781 181.183594 198.882812 181.878906 200.339844 C 182.574219 201.789062 183.613281 202.902344 184.996094 203.6875 C 186.378906 204.464844 188 204.851562 189.859375 204.851562 L 190 204.851562 C 190.042969 204.851562 190.085938 204.851562 190.128906 204.851562 C 190.261719 204.851562 190.394531 204.84375 190.527344 204.84375 C 190.660156 204.851562 190.796875 204.851562 190.933594 204.851562 L 191.070312 204.851562 C 191.113281 204.851562 191.15625 204.851562 191.203125 204.851562 C 192.667969 204.851562 194.109375 204.578125 195.535156 204.027344 C 196.964844 203.46875 198.058594 202.828125 198.808594 202.097656 L 198.808594 193.671875 L 189.726562 193.671875 L 189.726562 198.011719 L 193.839844 198.011719 L 193.839844 198.925781 C 193.296875 199.34375 192.644531 199.703125 191.886719 200.003906 C 191.355469 200.210938 190.820312 200.339844 190.289062 200.398438 C 189.082031 200.261719 188.078125 199.753906 187.28125 198.863281 C 186.449219 197.921875 185.988281 196.566406 185.894531 194.796875 C 185.988281 193.164062 186.441406 191.902344 187.257812 191.023438 C 188.042969 190.183594 189.058594 189.699219 190.300781 189.570312 C 191.054688 189.65625 191.707031 189.894531 192.25 190.292969 C 192.945312 190.796875 193.417969 191.484375 193.667969 192.355469 C 195.191406 192.378906 196.773438 192.027344 198.578125 191.6875 C 198.207031 189.761719 198.140625 188.007812 196.175781 186.511719 C 194.941406 185.582031 193.21875 185.117188 191.007812 185.117188 L 190.851562 185.117188 C 190.816406 185.117188 190.777344 185.117188 190.742188 185.117188 C 190.605469 185.117188 190.472656 185.125 190.339844 185.125 C 190.207031 185.117188 190.074219 185.117188 189.933594 185.117188 L 189.808594 185.117188 C 189.761719 185.117188 189.714844 185.117188 189.667969 185.117188 Z M 213.902344 185.117188 C 212.539062 185.117188 211.371094 185.324219 210.402344 185.734375 C 209.4375 186.148438 208.699219 186.75 208.179688 187.542969 C 207.671875 188.328125 207.417969 189.171875 207.417969 190.078125 C 207.480469 190.542969 207.417969 190.992188 207.417969 191.421875 C 207.417969 192.828125 207.960938 194.023438 209.054688 195 C 209.832031 195.695312 211.179688 196.28125 213.105469 196.761719 C 214.601562 197.132812 215.5625 197.390625 215.980469 197.535156 C 216.597656 197.753906 217.023438 198.015625 217.265625 198.3125 C 217.378906 198.441406 217.460938 198.582031 217.519531 198.734375 C 217.382812 199.109375 217.128906 199.453125 216.757812 199.761719 C 216.304688 200.140625 215.664062 200.367188 214.859375 200.449219 C 214.0625 200.359375 213.398438 200.101562 212.882812 199.664062 C 212.246094 199.113281 211.820312 198.253906 211.609375 197.082031 C 210.066406 197.070312 208.476562 197.253906 206.769531 197.417969 C 206.976562 199.484375 207.230469 201.789062 208.933594 203.3125 C 210.136719 204.347656 211.863281 204.863281 214.113281 204.863281 L 214.28125 204.863281 C 214.316406 204.863281 214.347656 204.863281 214.382812 204.863281 C 214.523438 204.863281 214.664062 204.863281 214.800781 204.859375 C 214.929688 204.863281 215.054688 204.863281 215.1875 204.863281 L 215.28125 204.863281 C 215.339844 204.863281 215.394531 204.863281 215.457031 204.863281 C 217 204.863281 218.289062 204.652344 219.324219 204.222656 C 220.359375 203.785156 221.160156 203.121094 221.726562 202.230469 C 222.292969 201.34375 222.578125 200.386719 222.578125 199.367188 C 222.578125 199.113281 222.5625 198.867188 222.535156 198.632812 C 222.558594 198.433594 222.574219 198.230469 222.574219 198.027344 C 222.574219 196.902344 222.335938 195.960938 221.859375 195.199219 C 221.390625 194.429688 220.734375 193.828125 219.890625 193.390625 C 219.058594 192.949219 217.769531 192.519531 216.023438 192.105469 C 214.273438 191.691406 213.175781 191.296875 212.722656 190.917969 C 212.570312 190.789062 212.460938 190.652344 212.371094 190.5 C 212.464844 190.34375 212.59375 190.199219 212.761719 190.074219 C 213.21875 189.746094 213.8125 189.546875 214.539062 189.472656 C 215.21875 189.542969 215.757812 189.730469 216.140625 190.039062 C 216.648438 190.433594 216.980469 191.089844 217.132812 192.003906 C 218.738281 192.003906 220.378906 191.921875 222.0625 191.847656 C 221.949219 189.941406 221.785156 187.933594 220.273438 186.585938 C 219.148438 185.605469 217.46875 185.117188 215.238281 185.117188 L 215.082031 185.117188 C 215.042969 185.117188 215.007812 185.117188 214.96875 185.117188 C 214.832031 185.117188 214.699219 185.125 214.566406 185.125 C 214.433594 185.117188 214.300781 185.117188 214.164062 185.117188 C 214.128906 185.117188 214.101562 185.117188 214.070312 185.125 C 214.011719 185.125 213.957031 185.117188 213.898438 185.117188 Z M 306.671875 185.117188 C 305.222656 185.117188 303.945312 185.351562 302.835938 185.820312 C 302.003906 186.167969 301.238281 186.703125 300.53125 187.421875 C 299.835938 188.144531 299.285156 188.957031 298.882812 189.863281 C 298.339844 191.089844 298.070312 192.613281 298.070312 194.421875 C 298.070312 194.613281 298.082031 194.796875 298.089844 194.980469 C 298.078125 195.238281 298.070312 195.496094 298.070312 195.765625 C 298.070312 198.597656 298.851562 200.820312 300.410156 202.4375 C 301.972656 204.046875 304.074219 204.851562 306.71875 204.851562 C 306.777344 204.851562 306.832031 204.851562 306.890625 204.84375 C 306.921875 204.847656 306.953125 204.851562 306.988281 204.851562 C 307.125 204.851562 307.257812 204.84375 307.390625 204.84375 C 307.523438 204.851562 307.65625 204.851562 307.792969 204.851562 C 307.828125 204.851562 307.855469 204.851562 307.890625 204.84375 C 307.949219 204.84375 308.003906 204.851562 308.0625 204.851562 C 310.675781 204.851562 312.761719 204.042969 314.324219 202.425781 C 315.882812 200.800781 316.664062 198.550781 316.664062 195.679688 C 316.664062 195.449219 316.648438 195.230469 316.640625 195.007812 C 316.648438 194.789062 316.664062 194.566406 316.664062 194.339844 C 316.664062 191.441406 315.875 189.179688 314.296875 187.554688 C 312.730469 185.929688 310.632812 185.117188 308.015625 185.117188 C 307.957031 185.117188 307.898438 185.117188 307.839844 185.125 C 307.808594 185.125 307.777344 185.117188 307.746094 185.117188 C 307.605469 185.117188 307.472656 185.125 307.335938 185.125 C 307.203125 185.117188 307.074219 185.117188 306.941406 185.117188 C 306.90625 185.117188 306.878906 185.125 306.84375 185.125 C 306.785156 185.125 306.730469 185.117188 306.671875 185.117188 Z M 146.949219 185.421875 L 146.949219 204.550781 L 151.882812 204.550781 L 151.882812 197.148438 C 152.386719 197.175781 152.800781 197.230469 153.074219 197.332031 C 153.453125 197.460938 153.816406 197.707031 154.15625 198.070312 C 154.496094 198.425781 155.125 199.296875 156.046875 200.679688 L 158.644531 204.550781 L 164.28125 204.550781 C 163.703125 202.65625 163.957031 202.691406 162.109375 199.738281 C 161.25 198.355469 160.570312 197.390625 160.058594 196.851562 C 159.90625 196.683594 159.734375 196.523438 159.558594 196.367188 C 160.429688 196.074219 161.132812 195.640625 161.660156 195.0625 C 163.046875 193.234375 163.273438 189.570312 162.0625 187.605469 C 161.542969 186.789062 160.851562 186.222656 159.984375 185.90625 C 159.128906 185.582031 157.75 185.421875 155.847656 185.421875 Z M 164.878906 185.421875 L 164.878906 204.550781 L 179.75 204.550781 L 179.75 200.210938 L 169.8125 200.210938 L 169.8125 196.710938 L 178.742188 196.710938 L 178.742188 192.371094 L 169.8125 192.371094 L 169.8125 189.773438 L 179.410156 189.773438 L 179.410156 185.421875 Z M 200.671875 185.421875 L 200.671875 204.550781 L 205.605469 204.550781 L 205.605469 185.421875 Z M 222.980469 185.421875 L 222.980469 189.773438 L 228.257812 189.773438 L 228.257812 204.550781 L 233.191406 204.550781 L 233.191406 189.773438 L 238.457031 189.773438 L 238.457031 185.421875 Z M 239.433594 185.421875 L 239.433594 204.550781 L 254.304688 204.550781 L 254.304688 200.210938 L 244.367188 200.210938 L 244.367188 196.710938 L 253.296875 196.710938 L 253.296875 192.371094 L 244.367188 192.371094 L 244.367188 189.773438 L 253.964844 189.773438 L 253.964844 185.421875 Z M 256.019531 185.421875 L 256.019531 204.550781 L 260.953125 204.550781 L 260.953125 197.148438 C 261.457031 197.175781 261.871094 197.230469 262.144531 197.332031 C 262.527344 197.460938 262.886719 197.707031 263.226562 198.070312 C 263.566406 198.425781 264.195312 199.296875 265.117188 200.679688 L 267.714844 204.550781 L 274.324219 204.550781 L 271.179688 199.738281 C 270.324219 198.355469 269.640625 197.390625 269.128906 196.851562 C 268.976562 196.683594 268.804688 196.523438 268.628906 196.367188 C 269.5 196.074219 270.207031 195.640625 270.730469 195.0625 C 271.515625 194.1875 271.90625 193.085938 271.90625 191.75 C 271.90625 191.523438 271.890625 191.308594 271.867188 191.09375 C 271.890625 190.871094 271.90625 190.644531 271.90625 190.40625 C 271.90625 189.355469 271.648438 188.421875 271.132812 187.605469 C 270.613281 186.789062 269.921875 186.222656 269.054688 185.90625 C 268.199219 185.582031 266.820312 185.421875 264.917969 185.421875 Z M 280.890625 185.421875 L 280.890625 204.550781 L 285.570312 204.550781 L 285.570312 195.121094 L 291.398438 204.550781 L 296.34375 204.550781 L 296.34375 185.421875 L 291.664062 185.421875 L 291.664062 195.109375 L 285.726562 185.421875 Z M 316.402344 185.421875 C 317.285156 191.328125 319.121094 198.160156 320.648438 204.550781 L 325.886719 204.550781 L 328.746094 193.777344 L 331.617188 204.550781 L 336.769531 204.550781 C 338.691406 198.273438 339.695312 191.144531 341.085938 185.421875 L 336.128906 185.421875 L 334.027344 194.992188 L 331.625 185.421875 L 326.011719 185.421875 L 323.496094 194.875 L 321.421875 185.421875 Z M 307.382812 189.570312 C 308.550781 189.703125 309.511719 190.1875 310.261719 191.035156 C 311.058594 191.921875 311.5 193.21875 311.589844 194.921875 C 311.5 196.652344 311.046875 197.980469 310.226562 198.898438 C 309.460938 199.761719 308.507812 200.257812 307.378906 200.394531 C 306.246094 200.257812 305.289062 199.757812 304.507812 198.886719 C 303.679688 197.960938 303.222656 196.648438 303.132812 194.957031 C 303.222656 193.253906 303.667969 191.953125 304.472656 191.058594 C 305.234375 190.199219 306.207031 189.703125 307.382812 189.570312 Z M 151.882812 189.773438 L 153.339844 189.773438 C 154.796875 189.773438 155.671875 189.792969 155.960938 189.832031 C 156.542969 189.929688 156.992188 190.164062 157.308594 190.535156 C 157.503906 190.757812 157.632812 191.027344 157.710938 191.332031 C 157.648438 191.570312 157.558594 191.785156 157.429688 191.972656 C 157.1875 192.328125 156.851562 192.578125 156.421875 192.726562 C 155.996094 192.871094 154.917969 192.945312 153.195312 192.945312 L 151.882812 192.945312 Z M 260.953125 189.773438 L 262.414062 189.773438 C 263.867188 189.773438 264.742188 189.792969 265.03125 189.832031 C 265.617188 189.929688 266.0625 190.164062 266.378906 190.535156 C 266.574219 190.757812 266.703125 191.027344 266.78125 191.332031 C 266.722656 191.570312 266.628906 191.785156 266.5 191.972656 C 266.257812 192.328125 265.921875 192.578125 265.492188 192.726562 C 265.066406 192.871094 263.988281 192.945312 262.265625 192.945312 L 260.953125 192.945312 Z M 260.953125 189.773438 " fill-opacity="1" fill-rule="evenodd"/></svg>