<svg xmlns="http://www.w3.org/2000/svg" xmlns:xlink="http://www.w3.org/1999/xlink" width="300" zoomAndPan="magnify" viewBox="0 0 224.87999 239.999995" height="320" preserveAspectRatio="xMidYMid meet" version="1.0"><defs><clipPath id="579c4d38dc"><path d="M 0 0.0625 L 224.761719 0.0625 L 224.761719 239.933594 L 0 239.933594 Z M 0 0.0625 " clip-rule="nonzero"/></clipPath><clipPath id="dfbf80875c"><path d="M 7.464844 15.023438 L 217.351562 15.023438 L 217.351562 224.914062 L 7.464844 224.914062 Z M 7.464844 15.023438 " clip-rule="nonzero"/></clipPath><clipPath id="403afcfc23"><path d="M 27 33 L 198 33 L 198 224.914062 L 27 224.914062 Z M 27 33 " clip-rule="nonzero"/></clipPath></defs><g clip-path="url(#579c4d38dc)"><path fill="#ffffff" d="M 0 0.0625 L 224.878906 0.0625 L 224.878906 239.9375 L 0 239.9375 Z M 0 0.0625 " fill-opacity="1" fill-rule="nonzero"/><path fill="#ffffff" d="M 0 0.0625 L 224.878906 0.0625 L 224.878906 239.9375 L 0 239.9375 Z M 0 0.0625 " fill-opacity="1" fill-rule="nonzero"/></g><g clip-path="url(#dfbf80875c)"><path fill="#92acdf" d="M 217.351562 119.96875 C 217.351562 177.925781 170.367188 224.914062 112.410156 224.914062 C 54.449219 224.914062 7.464844 177.925781 7.464844 119.96875 C 7.464844 62.007812 54.449219 15.023438 112.410156 15.023438 C 170.367188 15.023438 217.351562 62.007812 217.351562 119.96875 " fill-opacity="1" fill-rule="nonzero"/></g><g clip-path="url(#403afcfc23)"><path fill="#cedaf0" d="M 87.101562 136.539062 C 67.679688 154.246094 46.992188 153.210938 35.085938 165.125 C 32.097656 168.109375 29.613281 174.214844 27.5625 181.730469 C 46.644531 207.902344 77.539062 224.914062 112.410156 224.914062 C 147.277344 224.914062 178.167969 207.902344 197.25 181.730469 C 195.203125 174.214844 192.722656 168.109375 189.730469 165.125 C 177.828125 153.210938 157.140625 154.246094 137.710938 136.539062 C 137.832031 136.394531 133.230469 132.046875 133.058594 132.222656 L 133.058594 121.042969 C 138.265625 113.773438 141.730469 103.910156 143.773438 94.09375 C 143.980469 94.539062 144.253906 94.847656 144.582031 94.902344 C 145.796875 95.109375 147.320312 92.316406 147.964844 88.648438 C 148.589844 85.101562 148.15625 82.097656 147.023438 81.710938 C 148.753906 73.097656 147.855469 59.351562 144.308594 48.761719 C 140.722656 38.039062 125.210938 33.574219 113.160156 33.246094 L 113.160156 33.230469 C 113.125 33.230469 113.09375 33.230469 113.058594 33.230469 C 112.859375 33.230469 112.679688 33.230469 112.488281 33.230469 C 112.460938 33.230469 112.433594 33.230469 112.40625 33.230469 C 112.378906 33.230469 112.351562 33.230469 112.324219 33.230469 C 112.136719 33.230469 111.945312 33.230469 111.753906 33.230469 C 111.710938 33.230469 111.683594 33.230469 111.648438 33.230469 L 111.648438 33.246094 C 99.601562 33.574219 84.085938 38.039062 80.507812 48.761719 C 76.957031 59.351562 76.0625 73.097656 77.792969 81.710938 C 76.652344 82.097656 76.222656 85.101562 76.847656 88.648438 C 77.496094 92.316406 79.011719 95.109375 80.230469 94.902344 C 80.5625 94.847656 80.824219 94.539062 81.039062 94.09375 C 83.082031 103.910156 86.550781 113.773438 91.757812 121.042969 L 91.757812 132.222656 C 91.582031 132.046875 86.976562 136.394531 87.101562 136.539062 " fill-opacity="1" fill-rule="nonzero"/></g></svg>