<svg xmlns="http://www.w3.org/2000/svg" xmlns:xlink="http://www.w3.org/1999/xlink" width="45" zoomAndPan="magnify" viewBox="0 0 33.75 33.749999" height="45" preserveAspectRatio="xMidYMid meet" version="1.0"><defs><clipPath id="f1acec67d9"><path d="M 0 0 L 33.5 0 L 33.5 33.5 L 0 33.5 Z M 0 0 " clip-rule="nonzero"/></clipPath><clipPath id="124f719965"><path d="M 1.132812 1.132812 L 32.402344 1.132812 L 32.402344 32.402344 L 1.132812 32.402344 Z M 1.132812 1.132812 " clip-rule="nonzero"/></clipPath></defs><g clip-path="url(#f1acec67d9)"><path fill="#ffffff" d="M 0 0 L 33.5 0 L 33.5 33.5 L 0 33.5 Z M 0 0 " fill-opacity="1" fill-rule="nonzero"/><path fill="#ffffff" d="M 0 0 L 33.5 0 L 33.5 33.5 L 0 33.5 Z M 0 0 " fill-opacity="1" fill-rule="nonzero"/></g><g clip-path="url(#124f719965)"><path fill="#000000" d="M 16.765625 1.132812 C 8.144531 1.132812 1.132812 8.144531 1.132812 16.765625 C 1.132812 25.386719 8.144531 32.402344 16.765625 32.402344 C 25.386719 32.402344 32.402344 25.386719 32.402344 16.765625 C 32.402344 8.144531 25.386719 1.132812 16.765625 1.132812 Z M 16.765625 5.210938 C 19.390625 5.210938 21.523438 7.34375 21.523438 9.96875 C 21.523438 12.59375 19.390625 14.726562 16.765625 14.726562 C 14.144531 14.726562 12.007812 12.59375 12.007812 9.96875 C 12.007812 7.34375 14.144531 5.210938 16.765625 5.210938 Z M 24.921875 25.601562 L 8.609375 25.601562 C 8.234375 25.601562 7.929688 25.296875 7.929688 24.921875 C 7.929688 20.050781 11.894531 16.085938 16.765625 16.085938 C 21.640625 16.085938 25.601562 20.050781 25.601562 24.921875 C 25.601562 25.296875 25.296875 25.601562 24.921875 25.601562 Z M 24.921875 25.601562 " fill-opacity="1" fill-rule="nonzero"/></g></svg>