<svg xmlns="http://www.w3.org/2000/svg" xmlns:xlink="http://www.w3.org/1999/xlink" width="40" zoomAndPan="magnify" viewBox="0 0 30 30.000001" height="40" preserveAspectRatio="xMidYMid meet" version="1.0"><defs><clipPath id="aca1d7e01e"><path d="M 2.496094 6.527344 L 27.175781 6.527344 L 27.175781 29.027344 L 2.496094 29.027344 Z M 2.496094 6.527344 " clip-rule="nonzero"/></clipPath></defs><g clip-path="url(#aca1d7e01e)"><path fill="#000000" d="M 27.109375 25.296875 L 27.109375 27.785156 C 27.109375 27.949219 27.078125 28.105469 27.015625 28.257812 C 26.953125 28.410156 26.863281 28.546875 26.75 28.664062 C 26.632812 28.777344 26.5 28.867188 26.351562 28.933594 C 26.199219 28.996094 26.042969 29.027344 25.882812 29.027344 C 25.71875 29.027344 25.5625 28.996094 25.410156 28.933594 C 25.261719 28.867188 25.128906 28.777344 25.011719 28.664062 C 24.898438 28.546875 24.808594 28.410156 24.746094 28.257812 C 24.683594 28.105469 24.652344 27.949219 24.652344 27.785156 L 24.652344 25.296875 C 24.652344 24.726562 24.597656 24.160156 24.488281 23.601562 C 24.378906 23.039062 24.214844 22.496094 24 21.96875 C 23.785156 21.441406 23.519531 20.9375 23.207031 20.464844 C 22.894531 19.988281 22.535156 19.546875 22.136719 19.144531 C 21.738281 18.742188 21.304688 18.378906 20.835938 18.0625 C 20.367188 17.746094 19.871094 17.476562 19.351562 17.257812 C 18.828125 17.039062 18.292969 16.875 17.738281 16.761719 C 17.1875 16.652344 16.628906 16.597656 16.0625 16.597656 L 6.746094 16.597656 L 12.023438 21.929688 C 12.140625 22.046875 12.230469 22.179688 12.292969 22.332031 C 12.355469 22.484375 12.386719 22.644531 12.386719 22.8125 C 12.386719 22.976562 12.355469 23.136719 12.292969 23.289062 C 12.230469 23.441406 12.140625 23.578125 12.023438 23.695312 C 11.910156 23.8125 11.777344 23.902344 11.625 23.964844 C 11.476562 24.03125 11.316406 24.0625 11.152344 24.0625 C 10.988281 24.0625 10.832031 24.03125 10.683594 23.964844 C 10.53125 23.902344 10.398438 23.8125 10.28125 23.695312 L 2.917969 16.234375 C 2.800781 16.117188 2.710938 15.984375 2.648438 15.832031 C 2.585938 15.675781 2.554688 15.519531 2.554688 15.351562 C 2.554688 15.1875 2.585938 15.027344 2.648438 14.875 C 2.710938 14.722656 2.800781 14.585938 2.917969 14.46875 L 10.28125 7.011719 C 10.398438 6.894531 10.53125 6.804688 10.683594 6.742188 C 10.832031 6.675781 10.992188 6.644531 11.152344 6.644531 C 11.316406 6.644531 11.472656 6.675781 11.625 6.742188 C 11.777344 6.804688 11.910156 6.894531 12.023438 7.011719 C 12.140625 7.128906 12.230469 7.261719 12.292969 7.417969 C 12.355469 7.570312 12.386719 7.730469 12.386719 7.894531 C 12.386719 8.058594 12.355469 8.21875 12.292969 8.371094 C 12.230469 8.523438 12.140625 8.660156 12.023438 8.777344 L 6.746094 14.109375 L 16.0625 14.109375 C 16.789062 14.109375 17.507812 14.179688 18.21875 14.324219 C 18.929688 14.46875 19.621094 14.679688 20.289062 14.960938 C 20.960938 15.242188 21.597656 15.585938 22.199219 15.996094 C 22.800781 16.402344 23.359375 16.867188 23.875 17.386719 C 24.386719 17.90625 24.84375 18.472656 25.246094 19.082031 C 25.648438 19.691406 25.992188 20.335938 26.269531 21.015625 C 26.546875 21.695312 26.753906 22.394531 26.894531 23.113281 C 27.039062 23.835938 27.109375 24.5625 27.109375 25.296875 Z M 27.109375 25.296875 " fill-opacity="1" fill-rule="nonzero"/></g></svg>